<svg enable-background="new 0 0 560 560" viewBox="0 0 560 560" xmlns="http://www.w3.org/2000/svg"><g fill="#fff"><path d="m247.3 285.2c-.6-1-1.3-2.2-1.2-3.3.1-7.7.4-15.3.7-23 .1-3.1 2-5.2 4.8-6 2.7-.7 5.6-1 8.4-1.3 2.3-.2 4.7 0 7.6 0-7.5-15.2-9.6-31-9.1-47.6-1.9.3-3.3.5-4.7.8-6 1.1-10-1.3-11.8-7.1-2.1-7-4.1-14.1-6.4-21-1.5-4.6-.6-8.4 2.7-11.7 2.3-2.2 4.6-4.3 7-6.5 1.4-1.3 2.9-2.5 3-4.8 0-1 1-2.2 1.9-3 3.4-3.3 9.8-4.1 14.1-2 .9.4 2 .5 3 .4 2.8-.2 5.5-.6 8.3-.9.4.3.7-.1 1-.4 10.6-13.9 25-22.2 41.8-26.1 18.8-4.4 37.4-2.6 55.6 3.4 5.2 1.7 10.1 4 15.4 6.2.5-.6 1-1.3 1.6-1.9 4.4-3.8 9.2-6.2 15.3-5.1 2.3.4 4.8.1 7.2.3 2.2.2 4.3.7 6.5.9 1.6.2 3.3.4 4.7 0 4.1-1 8.2-1.7 12.3-.6 6 1.5 11.6 3.9 16.8 7.2 3.9 2.4 5.9 5.9 6.5 10.4.8 6.3 1.8 12.5 2.6 18.8.2 1.9 1.1 2.4 2.6 2 .9-2.6.3-4.8-.9-7-3.6-6.8-4.2-14.2-3.1-21.7.6-4.2 2.9-6 7.1-6.4 3.1-.3 6.1.5 8.9 2.2 3.3-2.9 6.8-3.6 10.9-1.8 4 1.7 6.4 4.7 8.3 8.7 10.5-2.3 15.2 4.7 19.2 11.9 2.9-.2 5.4-.4 7.9-.4 6.6 0 10.3 2.7 11 9.2.6 5.7 1 11.5 2 17.2.5 2.8.9 5.5 2.4 8 .6 1.1 1.1 2.4 1.1 3.7.1 4.8 0 9.6-.2 14.4-.2 4-.7 8-2.6 11.8-.5 1.1-.1 2.6-.1 3.8 4.9.5 4.9.5 8.3 3.6.9.8 1.8 1.6 2.6 2.5 4.8 4.7 7.9 10.1 7.8 17.1-.1 2.5.6 5 .9 7.5.2 2.2.2 4.4.2 6.5-.1 2.4-.7 4.8-.5 7.2.2 3.9 1.1 7.8 1.3 11.7.3 6.9.2 13.8.2 20.7 0 2.9-.6 5.9 1.2 8.6.4.7.4 1.7.5 2.6.1 7.9 0 15.8.2 23.6.1 6.3-3.4 9-8.5 8.6-.2 0-.4.2-.7.4-.2 2.6-.3 5.3-.5 8-.6 8.6-1.9 16.9-6.4 24.5-.6.9-.7 2.3-.6 3.4.4 6.2 1 12.4 1.5 18.6 1.5 18.8 3 37.5 4.3 56.3.9 12.9 1.1 25.8 1.9 38.7.4 6.9-1.8 12.4-6.6 17.1-.7.7-1.4 1.4-2 2.1-2 2.5-4.6 3.3-7.8 3.3-13.9.2-27.8.7-41.7 1-.7 0-1.5.2-2.2.3-.1 2.4.1 4.7-.4 6.9-.7 3.1 0 5.6 1.8 8 1 1.3 1.9 2.7 3.1 3.8 3.4 2.9 5.6 6.6 6.3 10.9 1 5.7 1.4 11.5 2 17.2.1.8-.1 1.7-.2 2.4-85.7 0-171.1 0-256.8 0 1.4-5.5 2.7-10.7 4.2-15.8.8-2.8.9-5.5.4-8.4-.9-5.1-1.5-10.2-2.2-15.3-.9-6 .1-11.5 3.7-16.5.5-.7.8-1.9.6-2.7-2-6.6-1.6-13.2-.5-19.9 1.1-6.4 1.6-12.8 1.2-19.3-.1-2.5.1-5.1-.2-7.5-.8-7.2-1.8-14.3-2.8-21.4-.1-1-.7-2-1.2-3.3-4.1 1.7-8 2.9-11.5 4.8-3.4 1.9-6.7 4.3-9.3 7.1-3.1 3.3-6.5 5-11 4.9-2.4 0-4.8-.2-7.2-.1-.9.1-2.1.6-2.7 1.3-3.7 4-7.9 7.1-13.3 8.5-8.1 2-16.1 4.2-24.1 6.3-2 .5-4.1.9-6.1.9-3.8.1-7.3.8-10.8 2.3-4.9 2.1-10.1 2.8-15.4 2.2-2.4-.3-4.7-1-7.1-1.2-1.1-.1-2.2.3-3.3.7-2.7 1.1-5.2 2.8-8 3.6-3.6 1-7.4 1.4-10.5-1.7-3.5 3.2-6.9 6.3-10.4 9.4 4.5 5.7 3.3 11-3 13.6-1.4.6-1.7 1.5-2.1 2.6-1.4 3.2-3.8 5.5-7.2 5.3-5.1-.2-10.2-.8-15.2-1.9-2.4-.5-4.6-1.8-7.3-1.7-1.6.1-3.9-.9-4.9-2.2-2.9-3.5-5.6-7.2-7.7-11.2-1.5-2.7-2-6-3-9-1.2-3.8-.9-7.4 1.3-10.7 3.5-5.3 7-10.7 13.7-12.6 0-1 0-1.8 0-2.7 0-6.3 2.8-11.2 8.2-14.4 2-1.2 4.2-1.8 6.3-2.8 2.9-1.3 5.8-2.6 8.5-4.1.9-.5 1.7-1.5 1.9-2.4.8-3.6 3.1-5.7 6.4-6.8 1.8-.6 2.8-1.8 3.5-3.5 3-6.7 8.5-11.3 13.9-15.8 1.2-1 2.9-1.5 4.4-2.1 1.6-.7 3.3-1.2 4.9-1.8 6.4-2.1 12.3-5.1 17.7-9.2 2.3-1.7 4.7-3.4 7.3-4.4 9.7-3.5 19.4-6.7 29.2-9.7 1.6-.5 4-.5 5.4.3 3.2 1.9 5.9.9 8.6-.5 2.7-1.5 5.5-2.8 7.8-4.7 4.6-3.8 9.8-5.6 15.6-6.1 4.1-.3 6.7-2.6 7.7-6.6 2-7.7 4-15.4 5.8-23.2 1.3-5.8 3.8-10.8 7.5-15.5 2-2.5 4-5.3 5.1-8.3 2.4-6.3 5.7-11.8 11.5-16-1.3-1.9-2.5-3.7-3.6-5.6zm35.5-136.9c.2-.3.5-.5.7-.8.2-.2.5-.4.7-.5.2-.2.4-.5.6-.7.7-.3 1.6-.5 2.2-1 12.8-10.1 27.2-13.5 43.2-11.1 7.5 1.1 14.7 3.2 21.8 6.2 3.6-6.6 10.1-8.7 17.2-11.4-2.8-.7-4.9-1.4-7-1.8-14.2-2.7-28.5-3.9-42.6-.3-13.2 3.3-25.3 9-34.6 19.5-.2.2-.4.5-.6.7s-.5.4-.7.5c-.4.3-.6.6-.9.7 0 .1 0 .1 0 0zm141 29.6c-.5-.2-1-.3-1.6-.5-2.8-2.1-2.9-5.3-3.3-8.3-.9-6.3-1.9-12.5-2.8-18.8-.3-2.1-1.1-3.5-3.1-4.5-6.9-3.6-8.4-3.2-11.6 3.9-1.7 3.8-3.4 7.5-3.3 11.9.1 2.2.8 3.8 2.7 4.9 2.1 1.2 4.1 2.5 6.3 3.5 5.1 2.5 10.2 4.9 15.2 7.4.4.1.9.3 1.5.5-.1-.1-.1 0 0 0zm-9.2 54.5c-.1-.2-.2-.3-.3-.5-.2-.8-.5-1.6-.8-2.8-1.7 2.1-.2 2.3.9 2.7.1.3.1.4.2.6zm-26.6 19 .6.3c.3-.3.6-.6.8-1 1.2-2.4 2.5-4.8 3.7-7.2.4-.8.9-1.5 1-2.3.4-2.2.6-4.5.9-6.7.1 0 .1-.1.2-.1h-.1c-4.7 4.7-5.6 10.9-7.1 17zm-323.3 221.4c1.7.4 3.2.4 4.6-1.4-1.4-2.6-2.8-5.3-4.5-8.5-2.3 2.8-4.4 5.4-6.5 8-.1.2 0 .6.1.9-.1 0-.1.1-.2.1h.1c2.2.3 4.4.5 6.4.9zm382.9-270.9c1.2 2.4 3.2 3.9 5.5 5.1.9 1.6 1.7 3.2 2.7 4.7.6 1 1.3 2 2.2 2.7 1.5 1.2 3.3 2.2 4.8 3.4 1.1 1 2.6 2.1 2.9 3.4.9 3.8 3.9 4.4 7.4 5.1-.6-1-1.1-2.1-1.9-3-2.4-2.7-4.9-5.3-7.5-7.8-3.3-3.1-6.9-5.9-10.4-8.9-1.9-1.5-3.1-3.9-5.7-4.7zm103 119.6c-.5.9-.3 2.1-.4 3.2-.1 2.3-.2 4.6-.4 7.1.9.2 1.7.3 2.5.4 1.9.2 2.9-.6 2.8-2.6-.1-5-.2-10-.3-15l.1-.1v.1c-1.4 2.4-3 4.6-4.3 6.9zm-146.8-82.4c3.8-6.1 7.7-12.2 11.5-18.3 1.7-2.7 1.4-3.6-1.6-4.8-1.3-.5-2.7-.6-4.3-.9-.2 1.2-.3 2-.5 2.9-.6 4.3-1.8 8.3-4.1 12-1 1.6-1.6 3.3-2.6 4.9-2 3.2-4.1 6.4-6.2 9.6-1 1.5-1.9 3.1-2.8 4.6-.2.1-.3.2-.5.3.1-.1.3-.2.4-.3 4.5-2.6 8.1-5.8 10.7-10zm61.7-37.1c.5-2.7 2.3-5.9-.2-8.1-2.9-2.6-6.4-4.5-10.7-4.6-.4 3.9-1.1 7.5-4.3 10.6 3.6 3.1 7 6.1 10.5 9.3 1.9-1.9 3.8-3.4 4.1-6v.1c.2-.6.5-.9.6-1.3zm-193.4 89.9c-.4 2.1-1.5 4.1-2.4 6.1-.8 1.7-1.7 3.3-2.8 4.8-9.5 13-13.4 28.1-15.7 43.6-.8 5.8-.1 11.9.1 17.9.7-5.4 1.4-10.8 2-16.2.9-8.5 3.1-16.5 6.7-24.2 3.4-7.4 6.9-14.6 12.3-20.8 2.4-2.8 3.7-6 4.2-9.8.4-2.7 1.8-5.3 2.9-7.9.5-1.2 1.2-2.3 1.9-3.4.1-.2.2-.4.4-.6-.2.1-.4.2-.6.3-4.6 2.2-8.1 5-9 10.2zm-215.5 188.9c.2-.1.5-.1.7-.2-.3-.6-.7-1.1-1-1.7-.3-1.5-.6-3-1-4.4-.6-2-.3-3.8.9-5.6 4.2-6.1 9.5-10.8 15.9-14.3 4.2-2.3 4.7-2.2 7.9 1.5.5.6.9 1.2 1.6 2.1 1.5-3.6 1.1-6.8.8-9.9-.1-1.3-.1-2.2 1.8-1.9 1.2 7 .4 13.5-3.4 19.7-1.2 1.9-1.9 4.1-2.6 6.2-.5 1.6.1 2.8 1.6 3.5 2.8 1.2 5.6 2.4 8.6 3.2.9.2 2.3-.5 3.1-1.2 4.6-3.9 9.1-7.9 13.5-12 1.4-1.3 2.9-2.4 4.9-2.1 1.9.3 3-.5 3.9-2.1.6-1.1 1.5-2.1 2.5-3.4-1.3-1.8-2.6-3.7-4.1-5.4-6.7-7.2-13.5-14.3-19.9-21.2-5.1 2.2-10.4 4.3-15.5 6.6-5.5 2.4-7.6 5.9-7.3 11.9.2 5.3-.1 5.7-5 7.2-1.1.3-2.3.9-3.1 1.7-2.1 2.2-4.1 4.6-5.9 7-1.8 2.3-2.3 4.9-1.1 7.7.7 1.6 1.3 3.3 2 5 .1.8.1 1.5.2 2.1zm428 28.3c-1.2-2.5-2.3-5.1-3.5-7.7-3.3 1.3-6.2 2.5-9.1 3.6-5.5 2-11.2 2.8-17 3.4-12.3 1.1-24.6 2.5-36.9 3.8-5.9.6-11.8 1.3-17.6 1.5-16.6.8-33.2 1.6-49.9 1.9-7.5.2-15.1-.6-22.6-1.2-9.9-.8-19.9-1.6-29.7-3-10.3-1.5-20.4-3.8-30.6-5.8-.6-.1-1.3-.3-1.9-.5-5-1.2-4.9-1.1-7.9 3.1-3.4 4.8-3.5 10-2.2 15.8 3.8.8 7.7 1.6 11.6 2.4l22.8 4.8c9.7 2 19.6 2.1 29.4 2 16.2-.2 32.4-.5 48.6-.3 18.8.3 37.4-.9 55.9-3.7 9.3-1.4 18.6-3 28.1-1.7 4.1.5 8.3.8 12.4 1.5 4.4.7 8.7.5 13-.8 2.9-.9 5.9-1.7 8.5-2.4.2-3 .4-5.8.7-8.6.4-3.1-.4-5.8-2.2-8.3zm-57.3-119.9c-4.9-1.4-8.9-4.6-12.6-8.1-2.3-2.1-4.7-4.3-6.7-6.8-2.9-3.5-6.3-6-10.4-7.8-3.4-1.5-6.8-2.8-10.4-4.3-.3 1.6-.5 2.9-.8 4.5-4.5-.4-9-.8-13.6-1.3-.1.8-.3 1.5-.3 2.2-.3 6.5-.5 12.9-.8 19.4-.2 5.4-1 6.4-6.3 7.9-.2 4.9-.5 9.9-.7 14.9-.7 17.6-1.4 35.2-2.2 52.8-.1 2-.2 3.9-.4 5.9-.7 5-4.4 8.2-9.5 8-15-.6-30-1.2-44.9-1.9-5.6-.2-11.1-.5-16.7-.8-6.2-.3-9.5-3.9-9.3-10.2.1-4.6.3-9.2.5-13.8.2-5.6.5-11.1.8-16.7 0-.7 0-1.5 0-2.4-2.2-.4-4.2-.6-6.2-1-2.9-.6-4.2-2.1-4.1-5 .4-7.2.8-14.4 1.4-21.6.3-3.6 2.1-4.9 5.8-4.5 1.4.1 2.8.3 4.4.5 0-3.2 0-6.1 0-9.5-3.9 0-7.9.2-11.7-.1-3-.2-6.1-.6-9-1.5-3.3-1-5.9-3.2-7.7-6.2-.4-.6-1.2-1.4-1.8-1.4-1.4 0-1.2 1.3-1.2 2.2 0 5.8 0 11.6.2 17.4.3 7.8.8 15.5 1.3 23.3.1 1 0 2 .4 2.9 4.6 11.5 5 23.6 5.4 35.8.2 7.5-.4 14.8-1.5 22.2-.9 5.6-1.2 11.3.8 16.5 3.7.9 7.2 1.5 10.7 2.5 13.8 3.7 27.9 5.5 42.1 6.6 7.7.6 15.4 1.7 23.1 2.6 9.5 1.1 19 .2 28.5-.1 11.9-.4 23.9-.7 35.7-1.5 10.6-.7 21.1-2.1 31.7-3.2 6-.6 12-1.4 17.9-1.9 1.6-.2 2.6-.5 2.9-2.3 1.7-8.8 3.5-17.6 5.2-26.4 1.5-7.7.1-15.3-.3-22.9-.2-3.5-.4-7.4.8-10.7 4.2-11.6 5-23.7 5.4-35.9.1-2.9 0-5.9 0-9.2-12.8-1-24.2-5.7-35.9-9.1zm-36.5-179.9c-.1-5.2 2-7.6 7.9-9-.3-2.7-.5-5.5-.8-8.3-.2-1.9-1.4-2.5-3.2-2.4-3.4.2-6.8.3-10.2.4s-4.2-.6-5.1-3.8c-2.1-7.3-4.2-14.5-6.1-21.8-.5-1.7-1.3-2.8-2.8-3.8-13.4-9.2-28.4-13.9-44.2-16.5-6.5-1-12.6.3-18.5 2.9-8.4 3.8-15.8 9-22.1 15.7-5.9 6.4-9.1 14.3-11.9 22.4-3.9 11.2-3.8 22.8-2.5 34.4 1.1 9.8 2.5 19.5 6.6 28.7 3.5 7.8 7.6 15.2 12.5 22.3.2.4.6.7.7 1.1 2.2 5.7 7.3 7 12.5 8.2 2.6.6 5.4.9 8.1.8 20.7-.8 41-3.5 60.2-11.8 5.2-2.2 7.6-6.5 9.7-11.3.7-1.6 1.5-3.1 2.3-4.6.6-1.2 1.2-2.3 1.6-3.5.6-2.1.9-4.3 1.5-6.4 1.1-3.8 2.8-7.4 5.7-10.2 3.7-3.6 4.5-8.1 4.7-13.1-4.2-1-6.6-4.9-6.6-10.4zm-3.2 146.5c2.2 1 4.4 2 6.6 2.9 6.8 2.9 12.9 6.8 18.9 11.1 15.4 11.3 32.5 18.8 51.7 20.9.5.1 1 0 1.6-.4-.5-.3-1.1-.6-1.6-.9-4.7-2.4-8.9-5.5-12.8-9.1-6.3-5.8-12.7-11.4-19.3-17.3.2-.4.6-1.1 1.1-2 11.2 7.1 19 17.9 30.5 24.4-1.1-1.1-2.2-2.2-3.2-3.4-9-10.1-11.6-21.8-7.9-34.8.5-1.9 1.3-3.8 2.5-5.3 3.9-5.2 6.7-11 9.1-17.3-3.2-3.8-3.6-8.5-3.2-13.4.3-4.8.3-9.6-.4-14.4-1-6.8.4-13.5 1.6-20.2.1-.3.1-.6.1-1.2-.9-.5-1.8-1.1-2.7-1.6-7 6.3-15 10.8-23.3 14.8-7.3 3.5-14.7 4.1-22.1.5-1.5-.7-2.9-1.8-4.7-3-4.6 5.6-9.2 11.3-12.7 17.9-1.6 3-3.1 6-4.7 9-2.6 4.8-5.7 9.3-9.4 13.4-4.7 5.2-4.4 11.6-3.5 18 .1.5 1.2 1.2 1.9 1.3 2.1.4 4.3.5 6.9.8-.4 3.5-.7 6.3-1 9.3zm-271.2 79.3c4.3 4.9 7.5 10.7 11.4 16.3 1.5-.5 3.1-1.2 4.8-1.7 1.4-.4 2.8-.7 4.2-.7 1.5 0 2.4.9 2.5 2.4.1 2.2.3 4.4.2 6.6 0 2.6-1.2 3.5-3.8 3.1-1.9-.2-3.7-.5-5.6-.5 7.9 2.6 15.7 3.2 23.6-.3 2.5-1.1 5.5-1.3 8.3-1.8 3.5-.7 7.1-1.1 10.6-1.9 6.8-1.6 13.5-3.5 20.3-5.2 2.9-.7 5.4-2 7.9-3.8 2.5-1.7 3.3-3.8 2.9-6.7-.9-6-.9-12-.3-18 .4-4.1-.5-8-2.8-11.6-3.8-6-7-12.3-9.1-19.2-.9-2.8-2.4-5.4-3.8-8-1.7-3.1-4.5-5.1-7.7-6.4-1.2-.5-2.9-.4-4.1 0-7.7 2.4-15.5 4.7-23 7.6-3.6 1.4-7.1 3.4-10.3 5.6-5.8 4.2-12.1 7.4-18.9 9.7-1.9.6-3.7 1.2-5.5 2-1.4.6-3 1.2-4 2.3-4.7 5-10.4 9.2-12 16.8 4.7 4.5 10 8.5 14.2 13.4zm406.3-164.6c-8.7 1.1-17-.7-25.2-2.9-7.7-2.1-15.3-4.6-22.9-7-5.4-1.7-10-4.8-13.8-9.1-.3-.4-.7-.7-1.3-1.4-.5 4.2.4 7.6 2.1 10.7 1.1 1.9 2.3 3.8 3.6 5.5 2.2 2.8 2.8 5.8 2.2 9.2-.8 4.6-1.6 9.3-2 13.9-.3 2.8.1 5.7.2 8.5.1 4.1.3 8.3.4 12.4.1 2.5-.1 5 .3 7.5.2 1.4.9 3.1 1.9 4.1 8.5 8.3 17.5 15.9 29.3 19.1 11.7 3.2 22.7.5 33.3-4.7 2.5-1.2 4-3.3 3.9-6-.1-3.5-.4-7-1.1-10.4-1.5-7.4-3.7-14.7-2.9-22.3.3-2.7.5-5.4.7-8.2.4-6.7-.8-13-3.4-19.5-2 .3-3.7.4-5.3.6zm-64.3 262.2c-.5-1.6-1.7-1.8-3-2-7.8-1.2-15.5-.8-23.2.2-9.8 1.3-19.5 2.9-29.3 3.6-10.7.8-21.4 1-32.1 1.2-16.8.2-33.7-.2-50.5.3-16.1.5-31.8-1.9-47.4-5.5-5.4-1.3-10.9-2.3-16.8-3.5.3 2.1.3 4.1.8 5.9 1.6 6 1.2 11.8-1 17.6-.6 1.7-.9 3.6-1.5 5.6h206.4c.6-8 .2-15.8-2.4-23.4zm.6-187.8c-5.4 8.9-4.1 22.6 2.8 31.5 5 6.5 11.2 11.6 18.4 15.5 2.8 1.5 5.9 2.3 9.1 2.2 10.2-.2 20.2-2.2 30-4.8 1.7-.4 3.4-1.6 4.7-2.9 9.4-9.5 17.8-19.7 19.8-33.5.9-6.1 1-12.4 1.4-18.6.2-2.4.2-4.8-.2-7.5-.7.8-1.4 1.4-1.9 2.3-6.6 11.2-17.3 15.1-29.2 17-11.4 1.7-22-.7-31.5-7.2-4.9-3.3-9.6-6.8-14.8-10.6-1.5 6.4-5.3 11.3-8.6 16.6zm60.5 160.5c5.9-.3 11.5-.5 17.2-.8.3 0 .7-.1.9-.3 4-4.3 9.1-7.8 8.7-14.7-.8-15.2-1.3-30.4-2.2-45.5-.8-13-2-25.9-3-38.9-.7-9.3-1.4-18.5-2.1-27.8 0-.2-.2-.3-.5-.7-6.7 9.1-13.1 18.4-26.2 18.6 2.4 37.1 4.8 73.4 7.2 110.1zm-19.3-325.6c-.4-.1-1.1-.2-1.2-.5-1.7-4.3-5.7-2.6-8.8-3.3-1.4-.3-2.9 0-4.2-.2-1.5-.2-3.3.2-4.1-1.9-.1-.4-1.4-.4-2.1-.4-1.8-.1-3.7 0-5.6 0-3.2 4.8-2.1 9.6.8 14.6-1.1.8-2 1.6-3.1 2.3-1.9 1.3-2.9 2.6-2.7 5.3.5 5.7-.8 11.1-5.9 15.2 2.3 2.6 4.6 5.1 6.8 7.5.9-.7 1.7-1.5 2.7-1.8 8.7-3.1 17.7-3.8 27-3.7.9 3.2 1.7 6.4 2.7 10 10.5-2.5 21.8-3 28.5-14.4-16.8 1.6-32.8-.6-48.8-4.6.3-1 .5-1.6.8-2.7 16 3.8 32.1 6.2 48.9 4.3.2-3.2.5-7 .8-10.8.1-.7.4-1.4.7-2.1.6-1.4 1.4-2.7 1.9-4.2.2-.7.1-2.1-.3-2.3-.7-.4-1.9-.4-2.6-.1-3.3 1.7-6.8 2.6-10.4 1.9-2.3-.5-4.5-1.4-7.1-2.3.6-1.1 1-1.8 1.4-2.7 5.5 2.4 10.8 2.9 16.3-.3-.2-1.6-.3-3.1-.5-5-5.8 2.9-11.3 2.9-16.9-.2.5-1.6.9-2.4 2.9-1.8 4.8 1.5 9.5 1.3 14.1-1.5-.4-1.2-.7-2.3-1.1-3.5-5.6 1.1-11 1.6-16-2.2.5-.7.9-1.4 1.1-1.7 2.8.6 5.3 1.3 7.9 1.6 2 .2 4.1-.2 6.2-.3.7-3.7.6-6.9-.3-10.1-.7-2.7-1.8-3.5-4.6-3.8-6.7-.7-8.6.7-10.2 7.2-.1.6-.3 1.2-.5 2.4-1.3-2.1-2.3-3.7-3.3-5.4-2.2.2-4.4.6-6.5.7-2 .1-4.1 0-6.7 0 1 2.1 2 4.3 3.1 6.3.4.6 1.5.9 2.3 1 3.2.1 6.5 0 9.8 0 .5 2.3.3 2.7-2.1 3.1-3.7.5-7.4.6-11-1-1.6 3.3 1.8 5.6 1.1 9 3.5.5 6.7 1 9.9 1.2 1.8.1 2.7.6 2.2 2.7-4.8.6-9.1-.3-13.3-1.5zm-144.7 221.4c-3.1.8-6.4 1-9.8 1.4.7.6 1.5 1.3 2.3 2.1 1 .9 2 1.7 2.8 2.7 1.9 2.2 1.9 3.6.3 6.2 1.4.2 2.8.4 4.1.7 4.6 1.1 6.5 6.9 3.2 10.4-.7.7-1.9.8-3.1 1.3v4.8c-1.3 0-2.5 0-3.7 0-12.5-.4-24.9-.8-37.4-1.2-2.5-.1-5.1-.4-7.5-.1-2.4.4-4.7 1.5-7.3 2.4-1-.9-2-1.8-2.9-2.6-1.7.7-3.3 1.7-5 1.9-1.8.2-3.7-.2-5.8-.4-.1 2.6-.3 5-.4 7.4-.4 8.3-.8 16.6-1 24.9-.2 5.6 2 7.7 7.6 7.9 19.8.8 39.6 1.7 59.3 2.5 5.7.2 7.8-1.7 8.1-7.4 1-23.2 2-46.3 3.1-69.5 0-.7 0-1.5 0-2.2-.3-.1-.6-.3-.9-.4-2.3 2.2-2.6 6.3-6 7.2zm124.2 97.2c.4-.2.6-.7 1-.8 3.3-.1 3.8-2.5 3.9-5 .2-2.7.3-5.5.1-8.2-.4-6.4 1.3-12.4 4.2-18 1.8-3.5 3.7-6.9 5.9-10.2 4.2-6.3 5.2-12.9 2.9-20-3.8-11.7-4.6-23.8-4.7-35.9 0-.5-.1-1-.1-1.9-6.9.9-13.5-2.6-20.4.2-1.1 3-2.1 6.2-2.2 9.8-.1 7.5-.3 15.1-.9 22.6-.3 3.4-1.3 6.9-2.3 10.2-2.3 7.7-2.7 15.4-.8 23.3 2.4 9.7 1.2 19.1-3.3 28-2 4-2.7 7.8-2.4 12.2 7-.9 13.2-3.1 19.1-6.3zm-261.4-56.3c2.8 0 5-.9 6.9-3.1 2.1-2.2 4.5-4.1 6.9-5.9 1.5-1.1 2-2.3 2.3-4 1.3-8.7.5-17.3-1.1-25.8-1.2-6.5-2.7-13-4.5-19.5-1.9-6.8-6-12.5-9.4-18.6-7.3.5-14 1.5-19.7 6.5-3.1 2.7-7.3 4.3-11.1 6.4 3.9 4.7 6 10.5 8.3 16.3 1.7 4.4 3.9 8.8 6.4 12.9 3.3 5.3 4.6 10.9 4.3 17.1-.3 5.7 0 11.5 0 17.6 4.2.1 7.4.1 10.7.1zm285.7-193.9c-8.2-1.9-16.6-3.2-24.6-5.8-5.9-1.9-12.2-4.4-13.4-12 0-.2-.3-.3-.2-.3-2.1 2.2-4.2 4.4-6.4 6.5-1 .9-.9 1.8-.6 2.9 2.5 7.5 7.2 13.2 14.6 15.9 13.2 5 26.6 10 40.7 10.8 12.3.7 24.5-.6 34.7-9 2.2-1.8 3.3-3.6 3-6.4-.5-4.8-.8-9.6-1.6-14.3-.3-2-1.4-4-2.6-5.6-1.7-2.3-3.9-4.1-5.8-6.2-1.4-1.5-3.1-1.9-5-1.3-.1.3-.2.5-.2.6.7 4.2.6 4.2-2.9 6.5-7.6 5-16.1 7.2-25 8.3-.6.1-1.3.2-2.1.3.8 3.3 1.5 6.4 2.4 9.9-1.9-.2-3.4-.5-5-.8zm-10.3 258.4c6.7-.7 13.5-.7 20.3-.9 1.1 0 2.1-.2 3.4-.2-2.4-36.5-4.8-72.7-7.2-109.2-4.7.7-9.2 1.4-14 2.1.9 8.1 1.6 16 2.7 23.9.8 5.7 2.1 11.4 3.2 17.1 1.2 6.4.4 12.4-3.1 18-2 3.2-3.8 6.6-5.7 10-2.9 5.3-4.5 10.8-4.2 17 .3 6-1.3 11.5-5 16 1 5.9 4.6 6.7 9.6 6.2zm-248.5-199.5c-1.6 4.4-3.9 8.3-6.9 11.8-3.1 3.7-5.1 7.8-6.2 12.5-2 8.8-4.3 17.6-6.6 26.4-.3 1.2-.6 2.3.5 3.3 7.2 6.6 10.4 15.3 12.8 24.4 2.1 8.2 3.2 16.7 4.8 25.1 1 5.4 1.5 10.8.3 16.7 2.8-.9 5.1-1.6 7.5-2.4-.2-4.3-.6-8.6-.7-12.8-.3-9.7-.5-19.5-.8-29.2-.3-6.7-.6-13.3-1.2-19.9-.9-10.4.2-20.6 3.1-30.5 2.1-7.2 3.8-14.6 7.4-21.3 3.5-6.6 6.6-13.5 10-20.5-11.3 1-20 5.3-24 16.4zm50.2 81.7c-.1 3.7.2 4 3.7 5.5.9.4 1.7 1.2 2.5 2 3.5 3.5 6.8 7.2 10.3 10.5 5.8 5.4 10.3 6.1 17.2 2 5.3-3.2 10.3-6.9 15.5-10.3 1.4-.9 3-1.7 4.6-2.3 1.7-.7 2.8-1.7 2.9-3.6.2-2 .3-3.9.4-5.9.7-15.1 1.3-30.1 1.9-45.2.2-4.2-1.1-5.7-5.4-5.9-9.8-.5-19.7-.8-29.5-1.3-5.5-.2-10.9-.5-16.4-.7-4.2-.1-5.4 1.1-5.6 5.3-.4 8.4-.7 16.8-1.1 25.2-.4 8.3-.7 16.5-1 24.7zm57.1 34.6c1.3-.4 2.5-.7 3.7-1 1.2-4.3.8-5.1-3.4-5.4-5.8-.4-11.6-.4-17.4-.6-5.5-.2-10.9-.1-16.4-.6-3.3-.3-6.5-1.1-9.7-2-2.9-.8-3.2-2.5-1.4-6.3-.1-.2-.2-.4-.3-.6-3-4.3-7.1-5.6-12.4-5.1-5.1.5-10.2-.2-15.4-.4-.8 0-1.5 0-2.6 0-.3 1.3-.7 2.6-.8 3.8-.4 6.3-.8 12.7-1.2 19-.1 1.6.6 2.6 2.1 2.7 4.6.5 9.1 1 13.7 1.4.8.1 1.6-.4 2.3-.9 1-.7 1.8-1.5 2.8-2.3 1.3 1.2 2.5 2.3 3.6 3.4.3 0 .6.1.7 0 3.9-2.2 8.1-2 12.4-1.8 12.4.5 24.7.8 37.1 1.2.6 0 1.3-.1 2.2-.2.3-1.7.4-2.9.4-4.3zm11.5-128c-1 6.5-.4 12.8 1.3 19.1 1.5 5.4 2.5 10.9 3.9 16.3.8 3.2.1 5.8-1.9 8.2-1 1.2-1.9 2.6-3.2 4.4 2 .1 3.6.2 5.4.3.4-4.7 1-9.2 1.2-13.8.1-4 1.7-7.4 3.9-10.6 1.8-2.6 3.9-5 5.8-7.6 4.5-5.9 8.9-11.9 13.5-17.8 3.6-4.6 7.5-9.1 11.4-13.8-3.1-3.9-6.4-8-9.9-12.4-11.7 7.4-24 13.5-37.7 17.3 5.8 2.5 7.3 4.7 6.3 10.4zm-73.2 79.3c-3.1-4.7-5.8-9.8-8.6-14.7-.7-1.3-1.2-3-1.1-4.6 0-3.8.4-7.6.6-11.5 0-.8 0-1.7 0-2.7-5.1 0-10-.2-14.9.1-3.8.2-5.7 3-6.4 6.5-.7 4-1.3 8-1.6 12-.5 5.8-.7 11.6-1 17.4-.2 3 1.2 5.2 3.6 6.5 2.2 1.2 4.6 2.4 7 2.5 7.6.4 15.3.3 23 .4.3 0 .6-.2 1.1-.4.4-3.9.8-7.7-1.7-11.5zm130.3-139.6c.6 4.8 1.3 9.5 1.7 14.1.1 1.6.9 2.2 2.2 2.8 6.2 2.5 12.3 5.1 18.5 7.6 1.8.7 3.8 1.1 5.9 1.7 1.7-1.8 3.5-3.6 5-5.5.5-.6.5-1.6.6-2.4.3-2.5.6-5 .7-7.5.1-.9-.1-1.9-.2-2.8-.1-.7-.5-1.4-.8-2.2-1.2-3.9-.6-5.9 2.7-8.2 2.8-2 4.3-4.6 4.3-8 0-3.2-4.1-6.1-7.1-4.9-4 1.6-8.1 2.3-12.4 3-3.3.5-6.4 1.6-9.9 1.4-2.5-.2-4.8-.4-6.4-3.8-1.5 5.6.4 11.4-4.8 14.7zm109.2 34.5c.6 2 1.1 3.7 1.6 5.5 1.7 6.1 2 12.3 1.2 18.5-1 7.7-.1 15.2 1.8 22.7 1.1 4.3 1.8 8.7 2.6 13 3.4-3.8 7.1-7.6 10.5-11.7 2.7-3.3 4.1-7.3 4.2-11.5.3-9.4.8-18.8.6-28.2-.1-5.4-1.2-10.8-2-17-6.1 5.2-12.8 7.8-20.5 8.7zm-181.9 55.5c-2.7-2-3.8-4.6-3.8-7.9 0-4.9 1.2-8.9 6.5-10.4.6-.2 1.1-.6 1.5-1.3-3.2 0-6.5 0-9.7 0-7.7 0-15.3-.1-23 .1-1.6 0-3.4.6-4.9 1.3-1.9.8-3.6 2.1-5.4 3.1-4.6 2.7-5.1 9.2-1.1 12.7.5.4 1.1.8 1.5 1.3 3 4.2 7.2 5.2 12.2 5.3 9.7.2 19.4 1.1 29.1 1.6.9.1 1.7 0 3.4 0-2.5-2.3-4.2-4.2-6.3-5.8zm-80.4-37.4c.5-.1 1.1-.3 1.5-.6 4.8-3.6 9.6-7.2 14.1-10.5-3.9-6.5-7.8-12.9-11.8-19.7-4.8 0-9.8-.2-14.8.1-4.7.3-5.4 1.1-5.5 5.9-.2 5.6-.3 11.2-.3 16.7 0 1.3.4 2.8 1.1 4 1.3 2.4 2.9 4.6 4.3 6.6 4-.9 7.7-1.7 11.4-2.5zm150.2-137.8c1.2 7.3 2.3 14.7 3.3 22 .2 1.4.8 2.4 1.9 3.2 2.3 1.6 4.6 3.3 6.8 5.1 1.5 1.2 3.1 1.8 5 2 4.3.4 6.6-1.8 6-6.2-.6-5.3-1.5-10.6-2.2-15.9-.4-2.5-.7-5-1.1-7.5-.8-6.3-4.2-10.7-9.9-13.3-3.2-1.5-6.6-2.8-10-4.1-.9-.3-1.8-.4-2.7-.6 1.2 5.5 2.1 10.4 2.9 15.3zm55 406.3h26.6c-.9-8.2-.5-16.5-7.6-22.6-1.6-1.4-2.8-3.4-4.2-5.2-5.8 1.4-11.7 2.9-17.8 4.4 3.3 7.5 1.3 15.6 3 23.4zm-195.4-257.2c5 .2 10 .4 15 .7 6.1.3 12.2.5 18.4.8 1.1.1 2.4 0 3.2.6 3.9 2.9 8.2 1 12.7 1.6 0-3.2 0-6 0-8.7h13v8.5c1.3.1 2.4.1 3.8.2 1.2-4.9-.4-10 2.2-14.8-4.8.7-9.5 1.4-14.2 2-10.5 1.3-20.9 1.8-31.4.7-1.7-.2-3.5 0-5.2.3-4.6.9-8.7-1.8-9.6-6.5-.2-1-.4-1.9-.7-2.9-4.2 3.7-6.3 9-7.2 17.5zm5.1 38.2c2-3.8 5.2-4.8 9.1-3.9 2.1.5 3.8.3 5.7-1.2 1.4-1.1 3.8-1.3 5.8-1.4 2.9-.1 5.8.2 9.5.4-2.2-2.2-3.7-4.2-5.6-5.5-5-3.3-4.7-8-3.8-12.9.1-.8.5-1.7 1-3-7.7 0-15.2 0-23.2 0v28.2c.3.2.6.4.9.7.2-.4.4-.9.6-1.4zm85.5-185.3c-14.5-9.6-30.2-16-47.8-16.1-15.3-.1-28.1 5.8-38.4 17-.9 1-1.7 2-2.4 3.1-2.2 3.3-1.8 5.1 1.6 7.9 1-1.2 1.9-2.3 2.9-3.5 9.5-11.4 21.5-18.1 36.4-19.3 7.5-.6 14.8 1.1 21.9 3.4 9.2 3 17.8 7.4 26 12.4.7.4 1.4.8 2.4 1.4 0-2.7-.3-4.8-2.6-6.3zm135 93.1c.4.1.8.1 1.6.1-.5-2.1-1-3.9-1.5-5.8-1.5-.1-2.8-.1-4.5-.2-1.4-4.9-2.9-9.9-4.4-15.1 1.6-.3 3-.6 4.7-1-.6-2.4-1.1-4.7-1.7-7.2-8 0-15.8.7-23.5 3.4.5 2.1.9 4.1 1.3 6.1 0 .2 0 .6.2.6 4 2.2 2.6 6.2 3.3 9.5.3 1.3.4 2.6.6 4.2 8.2 1.9 16.1 3.7 23.9 5.4zm-74.3-107.6c6.1 3 10 7.6 11 14.5 1.2 8.2 2.4 16.4 3.6 24.7.2 1.2-.3 2.5-.5 4 4.6-.8 9.3-1.7 13.7-3.7 2.2-1 2.7-3 2.4-5.2-.8-6.7-1.6-13.5-2.5-20.2-.4-3.1-1.1-6.2-1.5-9.4-.3-2.1-1.4-3.7-3-4.8-4.9-3.4-10.4-5.8-16.1-7-2.7-.6-5.6-.2-8.4.2-2.9.4-5.7 1.4-8.9 2.3 3.6 1.7 6.9 3 10.2 4.6zm-308.7 329.1c6.9-2.4 8.4-5.8 5.8-12.6-.1-.3-.2-.6-.4-.9-5-7.9-9.4-16.3-16.9-22.4-3.4-2.7-6.7-5.6-10.2-8.6-.8.3-1.7.6-2.6 1-3.4 1.6-4.2 4.5-1.8 7.3 5.1 5.8 10.2 11.7 15.7 17.2 4.1 4.1 7.3 8.9 10.3 13.8.3.6.1 1.7-.2 2.4-.5 1.1-1.3 2-2.3 3.5 1.4-.3 2-.4 2.6-.7zm136.4-113.3c.3-2.4.5-4.8 1.2-7.1 1.6-5.2 4.7-7.5 10-7.8 3.1-.2 6.3-.3 9.7-.5.1-3.5.3-7.1.3-10.7.1-3.5 0-7 0-10.7-4.3-.3-7.6-2-7.7-7.4-.7 1-1.6 2-2.2 3.1-4.8 9-9.6 18-11.5 28-1.2 6.2-1.8 12.5-2.6 18.8-.3 2.3-.4 4.6-.8 6.8-.5 3 .2 5.8 1.3 9.2.8-7.7 1.5-14.7 2.3-21.7zm208.8 45.2c-.1 1.4-.2 2.7-.2 3.9-.5 8.4-.8 16.8-1.7 25.2-.5 4.4-1.7 8.8-3.1 13-1.4 4.5-2.2 8.8-1.7 13.5.9 8.4 1.9 16.7.1 25.1-1.2 5.7-2.3 11.3-3.5 17-.6 2.9-1.1 5.8-1.7 8.9h4.3c.3-2.2.4-4.3.8-6.3.5-2.1.9-4.3 1.9-6.2 4.9-9.5 5.8-19.4 3.3-29.6-1.6-6.6-1.6-13 .4-19.4 3.3-10.8 4.2-21.8 3.9-33.1-.1-4 .8-7.9 1.2-12.1-1.1.1-2.4.1-4 .1zm-95.3-248.2c6.7-3.4 13.6-6.8 21.1-10.6-1-.9-1.5-1.8-2.3-2.1-4.7-2.3-9.5-4.5-14.3-6.6-.8-.4-2-.4-2.9-.2-5.1 1.1-9.9 2.9-14.1 6-1.4 1.1-2.6 2.6-4 4.1 5.9 3.4 11.1 6.4 16.5 9.4zm131 86.2c2.5-.2 4.9-.3 7.4-.5 8.2-.9 16-3 23.1-7.5 1.7-1.1 2.4-2.2 2-4.2-.7-3.7-1.3-7.4-2-11.8-6.1 8.4-14.9 10.2-23.7 12.1-3.1.7-6.2 1.1-9.7 1.8 1 3.5 1.9 6.6 2.9 10.1zm-140.3 155.4c.6.2.9.4 1.2.4 6.8.4 6.9.4 7.3-6.5.4-8.6.7-17.2 1-25.8.1-3.4.4-6.8.5-10.1.1-2.9-.9-3.9-3.9-4-1.5-.1-3 0-4.8 0-.5 15.3-.9 30.7-1.3 46zm45.9-109.8c-3.4 3.9-7 7.3-9.8 11.3-5.5 8-11.3 15.8-17.7 23.2-.4.4-.7.8-1 1.3-3.2 4.1-5.7 8.5-5.7 14 0 4.3-.7 8.7-1 13.3 2 .2 3.8.4 5.9.5-.9-5.1-.7-9.7.7-14.3.6-1.9 1.5-4 2.9-5.4 4.4-4.6 7.8-9.7 10.6-15.3 4.6-9.4 10.2-18.1 17.2-26.1-.8-.9-1.3-1.4-2.1-2.5zm-167.4 146.8c1.7-.5 2.3-1.6 2.6-3.3 1.1-6-.3-11.7-1-17.6-1.5-11.4-3.6-22.6-8.3-33.3-2.2-5.1-5.5-9.4-9.7-13.4-.7.9-1.3 1.8-2 2.7 6.6 9.7 11 20.1 13.2 31.6 2.1 11.2 4 22.4 2.3 34.4 1.3-.5 2.1-.9 2.9-1.1zm221.5-160.4c-1.8-3.1-3.6-6.2-5.4-9.3-10.5 9.9-20 20.9-31.8 29.8 9.5.5 31.2-11.5 37.2-20.5zm-30.7-5.6c1.2-.5 2.4-.8 4.1-1.4-6-3.4-12.6-4.2-16.9-8.6.4-2.8.7-5.3 1-7.7-.3-.1-.6-.2-.9-.2-1.3 3.8-1.4 8.2-4.9 11-3.3 2.5-6.7 4.9-10.2 7.5 1.4 2 2.8 4 4.1 5.9 1.4 1.9 2.8 3.9 4.5 6.2 4.6-7.7 12.3-9.7 19.2-12.7zm41 130.8c-8.3-.6-16.6-1.4-24.5-4.1-13.4-4.6-26.2-10.5-37.3-19.4-6.1-4.9-13.2-8-20.4-11-.9 1.7.3 2 1.3 2.4 2.6 1.1 5.3 2.1 7.9 3.3 4.4 1.9 8.1 4.6 11.2 8.3 2.8 3.3 6.1 6.2 9.4 9.1 3.4 2.9 7.4 5 11.8 6.2 8.3 2.2 16.6 4.8 24.9 7 6.9 1.8 13.8 1.3 20.8.5 0-.4 0-.7.1-1.1-1.7-.6-3.4-1.1-5.2-1.2zm-31.3-188.6c1.2.5 2.5.8 3.7 1.3.1-.2.2-.5.4-.7-1.6-2.1-3.2-4.3-4.8-6.4-.7-1-1.5-1.8-2.2-2.8-3.5-4.9-3.2-7.5 1.1-11.6-6.3-1-6.3-1-10.8-4-.6.5-1.3 1-2 1.5-1.2-.5-2.3-1-3.9-1.8 1.3 8.5 2.7 16.6 4.8 24.7 5-2.4 9.3-2 13.7-.2zm-185-36.7c-5 .9-9.7 1.8-14.8 2.7.1 1.3-.1 2.6.2 3.7 2.1 7.1 4.3 14.2 6.5 21.3 1.2 3.8 2.5 4.6 6.5 3.9 3.5-.6 7-1.2 10.9-1.9-3.2-10.1-6.2-19.8-9.3-29.7zm8.8 32.9c0 5.2-.1 10.3 0 15.4.5 16.5 6.5 31.3 14.5 45.5 2.4 4.2 5.2 8.1 7.8 12.1.9 1.5 2 1.6 3.5-.2-16.8-21.4-22.9-46.3-21.6-73.7-1.8.4-2.9.6-4.2.9zm30.4 87.7c2.8-.3 5.6-.4 8.4-.3 32.2 1.5 62.7-4.2 90.3-21.9.3-.2.6-.5 1-.8-1.1-1.7-2-.4-2.8 0-6.8 3.3-13.5 6.7-20.3 9.9-9.5 4.3-19.7 6.4-30.1 7.8-9 1.2-18 1.9-27.1 2.5-4 .2-8-.5-12.1-.9-4.5-.4-9.1-.9-13.7-1.3.8 3.5 3.5 5.3 6.4 5zm.4 47.7c-1.6-.3-2.9-.5-4.3-.7-2.9-.3-5.2 1.5-5.4 4.4-.5 5.2-.7 10.4-1 15.7 0 .6.1 1.3.5 1.9 2.7 4.8 5.5 9.6 8.3 14.4.2-.1.4-.1.6-.2.4-11.8.8-23.5 1.3-35.5zm88.8-183.5c3.2 1.3 4.9 3 5.5 5.6.1.4.2.8.3 1.3.4 3.4-1.5 6.6-4.3 7.2-2.7.6-5.8-1.7-6.6-5.2-.8-3.6 0-6.6 4.2-9-3.5.4-6.2.7-9.2 1 1 3.5 1.9 6.8 2.8 10 1.9 6.8 3.9 13.7 5.7 20.5.5 1.9 1.3 2.8 3.4 2.6 2.8-.3 5.7-.2 8.5-.4s3.2-.7 2.8-3.5c-.4-2.7-1.2-5.3-1.8-8-1.6-6.7-3.1-13.4-4.7-20.1-.2-.8-.5-1.6-.8-2.6-1.7.2-3.3.3-5.8.6zm54.4 55.5c-1.5-.1-2.9-.2-4.3-.3-4.6-.1-9.1-.4-13.4-2.4-.6-.3-1.6-.6-2.2-.3-3.2 1.4-6.2 3.1-8 5.8 3.2 1.5 6.3 3 9.4 4.5 1.3.6 2.6 1.2 3.9 1.5 5 1.2 10 1.9 15.4 2.2-.2-3.8-.5-7.2-.8-11zm33.3-21.5c-1.4-3.5-2.1-7-1.4-11 .7-3.5-3-6.8-7.8-7.6 0 .7 0 1.4.1 2.1.6 5-1 7.9-5.8 9.6-4 1.4-8.2 2.3-13 3.6 4.6.9 8.6 1.6 12.6 2.6 2.6.7 5.1 1.7 7.6 2.7 1.2.5 2.3 1.2 3.3 1.8 1.6-1.2 2.9-2.4 4.4-3.8zm-41.2 93.3c5-4.8 9.9-9.6 14.8-14.3.3-.3.5-.7.8-1-.2-.1-.3-.2-.4-.3-4.4-1.9-8.3-1.4-11.7 2.2-.9.9-2.1 1.6-3.2 2.2-4.6 2.5-8.9 5.4-11.7 10.1-.5.9-1.6 1.5-2.5 2.4 5 2.8 10.2 2.2 13.9-1.3zm-168-118c2.5 8.5 5 16.9 7.8 26.1 1-3 1.8-5.2 2.7-7.7-2.7-2.2-3.5-5.4-3.1-8.9.5-4.8 4.3-4.4 8.1-4.8-1.7-4.6-3.2-8.9-5-13.9-4 3.3-7.2 6.2-10.5 9.2zm120.8 103.8c-11.6 5.4-23.5 10.1-36.1 12.6-11.2 2.2-22.5 3.4-33.9 3.7-8 .3-15.5-1.3-22-6.4-1.1.8-2.2 1.5-3.2 2.2.9 3.7 1.2 3.7 4.3 3.9 3.3.1 6.5.4 9.8.9 10.1 1.7 20.1.9 30.1-.3 7.3-.9 14.5-2.2 21.7-3.7 11.8-2.3 22.5-7.6 33.1-13-.1-.3-.1-.7-.2-1-1.3.4-2.5.6-3.6 1.1zm109.7-123.3c1-4.2-3.8-10.2-8.1-10.1-2.4 0-5.3 3.4-5 5.9.2 2.3.7 4.5.8 6.8.1 2.9 1.9 4.3 4.4 4.9 2.1.5 4.2.5 6.3.7.5-3.1 1-5.7 1.6-8.2zm-82.3 53.4c3 .1 6.1-.3 9.5-.5-.8-4.4-1.6-8.9-2.5-13.7-5.2 2.1-10.1 4.1-15 6.1.3 4.2.7 8.1 1.1 12.8 1.7-3.5 3.8-4.8 6.9-4.7zm-131.4 110.3c1-.1 1.8-.2 2.7-.2 8.5.2 17 .4 25.6.7 2.8.1 4.5-1.6 7.1-3.3-1.5-.2-2.3-.4-3.1-.4-10.9-.5-21.8-1-32.8-1.4-1 0-2.3.4-3.1 1.1-1.3 1.1-1.9 7.5-.8 8.7.9.9 2.3 1.3 4 2.1.2-3 .3-5 .4-7.3zm230.7-151.4c.7-2.2 2.5-4 .5-6.6-2.4-3-4.3-6.4-8.8-6.4-.5 0-1.1-.1-1.6.1-1.5.4-3.5-.4-4.3 1.6-.9 2.3-1.8 4.6-.2 7.2 2 3.2 4.4 5.3 8.4 4.9 1.9-.2 3.9-.2 5.5-.3.3-.3.5-.4.5-.5zm-151.1 178.8c-1.2 0-2.2 0-3.1 0 2.2 2.3 4.4 4.6 6.8 7.2 1.2-1.7 2.8-3.5 4-5.5.5-.9.7-2.3.5-3.4-2-9-4.1-18-6.2-27-.2 0-.4 0-.6-.1-.4 9.5-.9 19.1-1.4 28.8zm2.2-32.3c.4-3.2.8-6.1 1-9 .1-2-1.3-3.8-3.5-4.2-1.5-.3-3-.3-4.6-.2-4.7.3-5.9 1.6-6.1 6.3-.1 2 0 3.9 0 6.3 4.5.2 8.8.5 13.2.8zm23.4 62c.5-4.7 1-9.2 1.5-14.2-3.5-.4-6.9-.8-10.8-1.2-.5 4.7-1 9.3-1.5 14.3 3.6.3 7.1.7 10.8 1.1zm-33.3-54.2c-3.9 1.9-5.5 9.2-2.5 12.4 2.3 2.4 4.9 4.5 7.9 7.2.3-7.6.6-14.8.9-22.5-2.5 1.2-4.4 2-6.3 2.9zm7.4 82.6c.5-15.4.9-30.8 1.3-46.3.1-1.9-.3-3.6-2-5.5-.2 4.3-.4 8.1-.6 11.8-.5 12.7-1.1 25.4-1.5 38-.1 4-1.1 7.3-5.7 9 5.7.1 8.3-2.2 8.5-7zm118.1-254.6c-.5-3.2-5.9-5.4-8.4-3.4-.7.5-1.2 1.7-1.2 2.5-.1 3 0 6.1.3 9.1.1.9 1.2 2 2.1 2.5 2.6 1.4 5.4 1.3 8.6.5-.4-3.9-.8-7.6-1.4-11.2zm-12.5 418.6h6.4c-.4-6.1-.5-12.2-1.2-18.2-.5-4.5-2.5-5.9-7.8-6.2 3 8 3 16.1 2.6 24.4zm-57.9-314.5c-1.3 2.4.8 8.3 3.2 9.7 1.6.9 3.2.5 4.4-1.4 2.1-3.2 2.5-6.7 1.9-10.4-.5-2.6-1.3-5-4.1-6.8-1.9 3.1-3.8 5.9-5.4 8.9zm-2.3-65.2c-1.7.8-3.1 1.5-4.7 2.2.3 2.4.7 4.7 1 7.2.4-.1.9-.2 1.2-.3 5.3-2.2 10.7-4.3 16.8-6.8-5.4-2.8-10.3-5.3-15.7-8 .6 2.3 1 3.9 1.4 5.7zm47.9 12.3c-2.8-.6-5.6-1.4-8.4-1.7-1.1-.2-2.4.3-3.4.9-2 1-2.5 2.6-1.5 4.6 1.4 3 3.6 5.4 6 7.5 5.5-2.8 6.7-4.6 7.3-11.3zm44.4-26.8c-.3-1.9-.3-3.8-.9-5.6-.4-1.4-1.2-2.9-3.2-2.6-3.7.6-7.4.5-10.8-1.5-1.5 7.3 6.3 12.2 14.9 9.7zm1.4 3c-4.7 1-9.9 2-14.7-2.2-.1 3.4.4 6.3 1.6 8.9.3.6 1.5 1.2 2.3 1.3 3.6.4 7.3.6 10.9.9-.1-2.9-.1-5.7-.1-8.9zm-55.5 54.5c4.4.6 8.1-.9 11.9-2.2-.7-1.5-1.5-2.9-2.1-4.4-1.1-2.9-3.4-4.3-6.5-4-1.3.1-2.6.1-4.2.2.4 3.7.7 7 .9 10.4zm-363.3 240.4c.5-2-2.1-4-3.9-3.1-2.4 1.3-4.6 2.9-7.1 4.5 1.4 2.8 2.6 5.5 4.2 7.9.6 1 2.1 1.4 3.7 2.3 1.3-4.4 2.3-8 3.1-11.6zm271.9-49c-1.4-3.4-4.7-5-7.1-7.6-2.2 1.5-4.3 2.9-6.4 4.3s-4.2 2.7-6.8 4.3c8.2.7 18.2.3 20.3-1zm-92.7-244.3c3 9.7 6 19.4 9.1 29.1 2-.7 2.5-1.9 1.9-3.6-2.8-9.2-5.5-18.3-8.4-28-1.1 1-1.8 1.7-2.6 2.5zm-182.5 308.3c-2.8 4-2.7 7.8.4 11.1 1.4 1.5 3.4 1.7 5.1.8 2.2-1.2 4.1-2.7 6.6-4.5-4.8-2.5-9.8-2.7-12.1-7.4zm335.5-195.3c-3.8-5.3-7.6-10.7-11.4-16-2.4-3.4-4.5-7-3.5-11.8-3.6 3.5-3.9 6.9-1.1 10.3 5.8 7.1 11.6 14.2 17.3 21.4 1.4 1.7 2.9 2.9 5.4 2.5-3.4-1-4.9-3.9-6.7-6.4zm-352.3 205.4c1.1 1.7 2.1 3.8 3.5 5.5 2.2 2.7 4.7 2.5 6.6-.5 2.2-3.4 2.2-3.4-1.6-8.2-2.8.8-6.4-1-8.5 3.2zm341.1-345.8h7.7c0-1.1 0-2 0-3 3-1.9 5.9-3.7 9.1-5.7-7.7-1.3-15.6 2.7-16.8 8.7zm-111.8 250.6c-.2 3.1-.3 6.1-.5 9.2h12.2c.1-.2.3-.4.4-.6-3.2-2.2-7.7-3.4-7.3-8.6-1.7 0-3.1 0-4.8 0zm96.6-242.5c3.7-.3 7.4-.7 11.4-1.1.5 1.8 1 3.5 1.6 5.8 1.6-3.3 3.1-6.1 4.6-9.1-6.9-3.1-12.1 1.1-17.6 4.4zm87.4 14.3c-1.4 6 2.6 10.2 8.6 8.8-.3-2.7-.6-5.4-.9-8.2-2.7-.3-5.2-.4-7.7-.6zm-70.8 42.2c-2.4-.1-4.7-.8-6.1 1.7-1.7 3.2-1 6.4.5 9.4 1.3 2.7 3.7.8 6 1.6-2.4-4.5-2.4-8.5-.4-12.7zm13.8 76.4c2.9-3.1 5.4-6.3 8.4-8.7 3.1-2.5 6.7-4.3 10.2-6.5-.1-.2-.2-.4-.3-.6-1.8.6-3.6 1.2-5.4 1.9-2 .9-3.9 1.9-5.8 2.9-1.8 1-3.8 1.9-5.3 3.2s-2.6 3.2-3.9 4.9c.7.9 1.3 1.7 2.1 2.9zm-5.7-71.6c1.6-1.6 2.5-3.4 3-5.6.3-1.2.9-2.4 1.4-3.8-.9 0-1.7 0-2.5 0-3.3.1-4.7 1.1-5.5 4.4-.8 3.5-.5 6.9.4 10.2 1.1-1.7 1.8-3.8 3.2-5.2zm-271.8 250.6c0-2.6 0-5.1 0-7.8-3.2-.4-5.7 1.2-8.4 2.3.3 1.5.5 2.9.8 4.4 2.6.4 5 .8 7.6 1.1zm331.6-307.2c1.7 6.2 3.4 7.8 10 6.8-.5-2.2-.9-4.4-1.3-6.3-3.1-.2-5.9-.3-8.7-.5zm-385.8 343.9c2.5.1 5.1.7 6.5-2.2 1.3-2.6.7-4.6-2.4-7.5-1.2.8-2.4 1.7-3.3 2.4-.3 2.8-.5 5-.8 7.3zm300.3-331.1c.7.3 2 .1 2.6-.4 1.7-1.4 1.7-3.4 1.1-5.4-.6-2.2-2.2-3.5-3.9-3.3-1.6.2-2.7 2-2.7 4.7.2 1.7.9 3.6 2.9 4.4zm15.2 66.2c2 .3 3.4-.7 4.2-2.6.9-2.1 2-4.1 2.7-6.3.9-2.8.4-3.3-2.5-3.2-.4 0-.8.1-1.3.2-1.1 4-2.1 8-3.1 11.9zm-325.7 257.5c-.2.7-.3 1.7-.8 2.6-.9 1.9 0 2.9 1.7 3.3 1.9.4 3.8.6 6 .9.4-1.8.8-3.3 1.1-4.6-2.9-.8-5.4-1.5-8-2.2zm257.5-191.5c-.1 1.8-.2 3.6-.3 5.6h7.3c.1-1.7.2-3.4.3-5.6-2.6 0-4.8 0-7.3 0zm86.5-72.4c-1.6 2.7-.1 4.9 1.5 7.3 4.2-3.1 1.9-7.7 3.6-11.7-3.7-.1-4 2.6-5.1 4.4zm-150-69.9c-1.5.7-2.5 1.2-3.5 1.5-2.4.9-4.7 2.2-7.2 2.6-3.8.6-4.4.6-7 4.2 6.4-1.4 13.3-1.4 17.7-8.3zm209.6 82.5c-.2-2.2-.5-4.3-.7-6.5-2.3-.6-4.5-1.1-6.6-1.6.4 4.1 2.1 7.2 7.3 8.1zm-72.7-107.3c-3.5-.3-9.1 2.7-10.3 5.4-.9 2 .2 3.3 3.2 3.4.4-4.5 3.6-6.6 7.1-8.8zm-16.5 132.8c1.5.1 2.8-1.9 2.8-4.1 0-2-1.2-4-2.5-4.1-1.5-.1-2.8 1.9-2.8 4.1 0 2.1 1.2 4 2.5 4.1zm14.2-1.1c3.4-2.4 6.7-4.8 10.5-7.4-3.3-.7-5.6-.5-7.5 1.8-1.2 1.4-2.7 2.5-4.1 3.8.3.6.6 1 1.1 1.8zm1.9-16.7c-1.5 1.8-3.1 3.2-4 5-.9 1.6-.1 2.4 1.7 2.4 1.6 0 3.2-.2 5-.4-1-2.5-1.8-4.5-2.7-7zm-311.7 241.9c.8 1.7 2.1 2 3.4 1.2.9-.6 2.1-2.1 2-2.9-.3-1.2-1.7-2.9-2.6-2.9-1.5 0-3 1.2-4.7 2 .8 1.1 1.5 1.8 1.9 2.6zm-31.5-7.5c1.9-.1 3.7-.2 5.5-.3-.1-3.4-.1-3.4-7.1-4.4.5 1.7 1 3.1 1.6 4.7zm217-308.7c-.1-.2-.2-.4-.3-.6-1.4.5-3.4.5-4.1 1.5-1.3 1.9-.5 4.1.9 6.4 1.2-2.7 2.3-5 3.5-7.3zm141.6 28.7c-2.4.1-3.1 2.3-4.2 4.8 2.8-1.5 5.2-2.1 7.8-.7-.5-2.1-1.3-4.2-3.6-4.1zm-175-32.8c2.9 1.2 11.2-.6 13.4-2.9-4.6 1-8.8 1.9-13.4 2.9zm9.9-11.4c2.8 1.4 5 1 8.2-1.7-3.3-.9-5.8-.3-8.2 1.7zm160.8-15.4c-1.5.1-3 .2-4.4.3-.1.3-.2.6-.2.9 1.6.8 3.3 1.7 5.5 2.8-.4-1.6-.6-2.6-.9-4zm-346.1 336.6c.5 1.4.9 2.7 1.5 4.5.6-2.5 1.1-4.5 1.7-6.8-1.1.8-2.1 1.5-3.2 2.3zm334.7-221.9c-1.9.1-3 .2-4.5.3.1 1.1.3 1.9.4 3.4 1.6-1.5 2.6-2.4 4.1-3.7zm-89.2 157.9c-1.4-1.2-2.5-2.1-3.8-3.3-1 2.9-.9 2.9 3.8 3.3zm-199.2 52.4c4-1.1 4-1.1 2.6-3.7-.8 1.2-1.6 2.3-2.6 3.7zm285.5-231.1c-2.2 1.1-2.5 1.5-2.7 5.3.8-1.7 1.7-3.4 2.7-5.3zm-18.2 30.2c.1.1.4.3.4.3.3-.2.5-.4.8-.7-.2-.2-.3-.3-.5-.5-.2.3-.5.6-.7.9z"/><path d="m416.2 418.5c.2 3.1-1.1 5.3-3.9 6.6-5 2.4-10.1 4.7-15.1 7.1-1.9.9-3.8.9-5.7 0-3.8-1.8-7.5-3.5-11.2-5.4-1.7-.9-2.8-2.3-3-4.4-.5-6.9-1.2-13.7-1.6-20.6-.1-2.3.2-4.6.7-6.8 1.8-7.3 7.9-14.9 19.2-12.2 2.7.7 5.4 1.6 8 2.8 5.5 2.4 9 6.7 10.7 12.5 1.5 5.1 2.3 10.2 1.9 15.5-.1 1.7-.1 3.3 0 4.9zm-36.1 2.8c.1 1.6.7 2.7 2.1 3.3 3.2 1.5 6.2 3.2 9.5 4.5 1.5.6 3.6.7 5 .1 4.7-1.9 9.3-4.3 14-6.4 1.9-.9 2.7-2.3 2.6-4.4-.3-5.2-.2-10.5-.8-15.7-1.6-12.1-11-16.8-21.3-17.3-5.4-.3-8.7 2.9-10.9 7.4-1.9 4-2.1 8.2-1.7 12.5.4 5.3 1 10.7 1.5 16z"/><path d="m484.6 509.1c-3.9 1.1-7.7 2.5-11.7 3.3-3.6.8-7.3 1.3-11 1.3-6.9.1-13.8-.7-20.7-.2-7.4.6-14.8 1.9-22 3.5-17.2 3.8-34.7 4.8-52.2 4.9-12.1.1-24.3 0-36.4-.2-20.8-.4-41.1-4.1-60.9-10.4-2.9-.9-5.9-1.8-8.8-2.7-1.2-.4-2.1-.4-2.2 1.5 2.9.9 5.7 1.9 8.6 2.7 13.2 4 26.4 8 40.2 9.2 12.3 1.1 24.7 2 37 2.1 16.5.1 33.1-.1 49.6-1.2 10.1-.6 20.1-2.7 30.1-4.8 9.6-2 19.2-3 29-2.3 10.1.7 19.9-.2 29.4-3.9 1.6-.6 2.6-1.1 1.9-2.9z"/><path d="m301.1 439c4.9 0 9.3 4.7 9.2 10 0 5.3-4.1 9.7-9 9.9-5 .1-9.2-4.3-9.3-9.8 0-5.6 4.1-10.1 9.1-10.1zm0 17.7c4 0 7-3.5 6.9-8-.1-4.3-3.3-7.5-7.1-7.4s-6.9 3.6-6.8 7.8 3.2 7.6 7 7.6z"/><path d="m343.3 460.5c-4.9-.1-9-4.5-9-9.9 0-5.5 4.1-9.9 9.2-9.9s9.2 4.4 9.1 10c0 5.4-4.3 9.9-9.3 9.8zm0-2.2c3.8.2 7.2-3.5 7.3-7.7 0-4.2-3.3-7.9-7.1-7.8-3.7.1-6.9 3.6-6.9 7.7-.2 4 3 7.7 6.7 7.8z"/><path d="m315.5 450.2c0-3.7 3-6.4 6.8-6.4s6.7 2.9 6.7 6.5-3.1 6.5-6.9 6.4c-3.7.1-6.6-2.8-6.6-6.5zm2.2 0c0 2.5 2.1 4.5 4.7 4.4 2.5 0 4.5-1.9 4.5-4.3s-2.1-4.5-4.7-4.4c-2.5.1-4.5 2-4.5 4.3z"/><path d="m301.5 364.5c.3-6.3.6-12.7.9-19 .3-5.3 1.9-6.8 7.1-6.6 10.7.4 21.4.9 32.1 1.3 4.9.2 6.6 2 6.4 6.9-.5 12.6-1 25.1-1.5 37.7-.2 4.7-2.2 6.4-6.8 6.3-10.9-.5-21.9-.9-32.8-1.4-4.5-.2-6.3-2-6.1-6.6.2-6.2.5-12.4.7-18.6zm7.5-23.5c-3.4-.1-4.3.8-4.4 4.1-.6 12.6-1.1 25.1-1.7 37.7-.2 3.5.8 4.6 4.2 4.8 10.7.5 21.4.9 32.2 1.3 4.3.2 5-.4 5.2-4.8.6-12.2 1.1-24.5 1.6-36.7.2-4.2-.6-4.9-4.8-5.1-5.4-.2-10.7-.5-16.1-.7v.1c-5.5-.3-10.8-.5-16.2-.7z"/><path d="m321 410.2c-3.9 0-7-3.1-7-7.1s3-7.2 6.9-7.3c3.8-.1 7 3.1 7 7.1-.1 4.1-3.1 7.3-6.9 7.3zm-5-6.9c.2 2.8 2.5 4.9 5.2 4.8 2.5-.2 4.5-2.4 4.5-5.1 0-2.8-2.3-5-4.9-5-2.7.1-4.9 2.6-4.8 5.3z"/><path d="m454.9 146.1c1.2 8.6 2.2 16.7 3.3 24.9-4.6 1.1-8.9 2.1-13.4 3.2-.2-1.1-.5-1.9-.6-2.8-1-7.2-2-14.5-3-22.1 4.6-1 9-2.1 13.7-3.2zm-8.4 25.4c3.2-.8 6.1-1.4 9.4-2.2-.9-6.8-1.8-13.6-2.8-20.6-3.2.8-6.1 1.5-9.4 2.3.9 6.9 1.8 13.5 2.8 20.5z"/><path d="m253.5 184.1c2.9 0 5.7 3.3 5.7 6.8 0 3.3-2.2 5.8-5 5.7-3.1-.1-5.6-3.3-5.5-7 .1-3 2.2-5.5 4.8-5.5zm.2 2.3c-1.6-.1-2.8 1.3-2.8 3.3-.1 2.4 1.7 4.8 3.5 4.7 1.5 0 2.7-1.6 2.7-3.5 0-2.2-1.7-4.4-3.4-4.5z"/><path d="m249.5 170.2c2.8.1 5.3 3.1 5.3 6.5 0 3.1-1.9 5.5-4.4 5.6-2.9.1-5.6-2.9-5.6-6.5 0-3.3 2-5.7 4.7-5.6zm.6 9.8c1.4 0 2.5-1.3 2.6-3.2.1-2.2-1.7-4.6-3.4-4.5-1.3.1-2.4 1.6-2.4 3.4 0 2.2 1.6 4.3 3.2 4.3z"/><path d="m385.1 170.3c2-1.1 3.8-.6 5.5.6 3.2 2.3 4.3 7.5 2.3 10.9-1.7 2.9-4.8 3.6-7.5 1.7-2.4-1.7-3.4-4.2-3.4-7.1 0-2.6.8-4.8 3.1-6.1zm1.3 11.1c1.6 1.7 4 1.2 4.7-1 .5-1.7.4-3.7 0-5.4-.6-2.3-2.8-3.4-4.5-3-1.6.4-2.6 2.2-3 4.8.9 1.6 1.6 3.3 2.8 4.6z"/><path d="m465 203.1-.1-.2v.2z"/><path d="m449.2 194.5c.1-.1.2-.3.2-.4 0 .1 0 .2-.2.4z"/><path d="m448 196.5v-.2z"/><path d="m448 196.5h-.2z"/><path d="m449.3 194.5-.2.1.1-.1z"/><path d="m381.6 394.5c1.3-4 4.2-6.9 8.7-7.5 8.1-1.1 17.2 4.4 19.4 12.3 1.1 4.1 1.8 8.4 1.7 12.6-.2 9.1 1.4 8.1-7.8 12.6-10.3 5.1-8.1 5.4-19.4-.7-.2-.1-.4-.2-.6-.3-1.4-.8-2.2-2-2.3-3.7-.4-4.7-.9-9.4-1.5-15.6.4-2.3.6-6.1 1.8-9.7zm26.1 5.9c-1.8-6.9-9.1-11.8-16.2-11.4-3.4.2-5.9 2-7.3 4.9-1.1 2.5-2.1 5.4-2 8.1 0 5.8.7 11.6 1.2 17.3.1.8.9 1.6 1.4 2.4.2.2.5.4.8.5 10.2 5.2 7.1 5.1 16.7.5.1 0 .2-.1.3-.1 8-4.1 6.2-2.7 7-10.7-.5-3.8-.9-7.8-1.9-11.5z"/></g></svg>