<svg enable-background="new 182 -279.1 614 622.1" viewBox="182 -279.1 614 622.1" xmlns="http://www.w3.org/2000/svg"><g fill="#fff"><path d="m316-180.3c-.1 3.2-2.3 4.4-6 4-3.2-4.7 3.3-8 6-4zm-5 2c1.6-.1 3.5.1 3-2h-2c0 1-.8 1.2-1 2z"/><path d="m493-172.3c.4 4.4-2.6 5.4-7 5-1.1-6.8 3.1-7.8 7-5zm-5 3c1.7.1 2.6-.8 3-2-1.6.1-3.5-.1-3 2z"/><path d="m495-173.3c4.3.4 10.3-1 13 1-.9 3.5-.1 2.5-1 6h-11c-1.4-1.3-1-4.3-1-7zm2 4c.5 1.4 9 2.4 8-1-.5-1.4-9-2.4-8 1z"/><path d="m445-62.3c-26.6-6-43.1-3.1-75-1-1.4 1.3-1 4.3-1 7-4.8-.4-7.5 2.4-10-1-.3-2.9 2.3-3.1 2-6 11.3-4.2 22.1-3.5 33-4 12.4-.6 32.6-2.9 45 2 1.8.7 5.7-.6 6 3zm-82 5c1-2 4.4-1.6 4-5-3.3-.9-6.7 3.2-4 5z"/><path d="m309-34.3h4c.4 2.1-.7 2.6-1 4-2.6.3-3.3-1.4-3-4z"/><path d="m319-34.3h4v4c-3.4.8-4.8-.6-4-4z"/><path d="m508-24.3c1.5.9 3.2 1.5 3 4-2 0-1.3 2.7-4 2-2.2-2.1-.2-4.4 1-6z"/><path d="m517-23.3c6.5-.6 5.5 6.3-1 5-.3-2.3.2-3.8 1-5z"/><path d="m502 78.7c.5 3.1-2.5 3.6-4 2 .2-1.8 1.7-2.3 4-2z"/><path d="m232 211.7c3.3 2.4-.9 5.7-1 8-18-4-13.6 14.4-21 21 6.3 10.3 19.8-3.3 29 3 2.1 3.3 5.2 5.5 8 8 5.3.3 9.8 1.6 13 4-3-.4-6 .6-8 0-8.3-2.4-10.5-11.3-21-12-7.1-.5-11.6 4.5-21 3-1.2-1.5-.9-4.5-4-4 2.2-4.1 6.3-6.4 8-11-.2-2.8-1.8-4.2-2-7 2.7-10.2 19.2-2.5 20-13z"/><path d="m775 343.6c-1.2-1.1-2.3-2.3-3.5-3.4-1.5 0-3 0-4.5 0 1.2 1 2.3 2.1 3.4 3.1 1.5.2 3 .3 4.6.3z"/><path d="m791.3 344.8c-1.5-1.6-3.1-3.1-4.6-4.7-3.4 0-6.8.1-10.1.1 1.2 1.2 2.4 2.5 3.7 3.7 3.6.2 7.3.5 11 .9z"/><path d="m326.1 67.6v.1c-.1 0-.1 0 0-.1z"/><path d="m691 259.7c-13.1-9.1-26.8-16.9-41-25-36.2-20.7-81.6-44.7-117-57-13-4.5-25.3-8.1-37-11-8.7-2.2-17.2-3.1-24-9 1.6-17.1 3.8-33.5 14-42 1.5 1.5 5.1.9 8 1 4.6-7.1 9-14.4 14-21 4.2-16.7-5.8-26.8-7-36-1.2-8.7 1.1-18.5 2-27 .9-8.6.7-17.6 5-25 5.1-.1 8.3 1.7 14 1 5.6-14.6 6.5-21.9 6-42 3.1-5.4 10.9-11.2 11-21 0-3.4-2.8-7.7-3-12-.3-7 2.7-14.9 2-21-1.2-9.9-7.8-16.4-12-22 0-4.4.3-9-1-12-5.6.3-9.5-1.1-13-3-5.3-11.7 2.2-21.3 3-32 1-12.8-3.9-25.7-2-41-3-1.8-7.9-3.2-11-2-.1 5.7.3 12.1-1 14-1.6-5.1-1.9-11.4-5-15-7.8-.4-10.8-.3-18-2 1.5 6.5-2.4 7.4-1 9-5.4-1.5-14.5 1.6-21 0-.2-4.2 4.9-3.1 4-8 .2-13.5-6.9-15.5-12-25-1.7-3.2-2.3-8.3-4-10-5.8-5.7-19.2-3.6-33-4-9.4-.3-19-1.7-27-2-18.5-.8-25.8 5.2-31 14-2.5 1.2-5.9 1.4-9 2-1.3 4-6.3 9.4-2 13-4.6 1.1-6.5 4.8-6 11-7.9 1.1-8.5 9.5-13 14-.5-7.5 1.5-12.5 3-18-4.2-1-13 .5-22 0-2 .6-.7 4.7-3 5 .3-2.3-.2-3.8-1-5-4.6-.4-11 1-14-1-3.3 6.4-4.4.4-10 7-4.2 11.6 6.7 18.8 8 32 .5 5.3-1 14.1-1 21 0 7.9.7 19.6 0 21-3.5 7.4-19.6 9.3-22 21-2.1 10.3 3.7 19 3 30 4.7 3.6 3 10.4 5 15 2.8 6.2 11.5 11.3 14 18 3.3 8.7 1.5 19.8 1 31-.6 14.7-1.4 28.4-1 43 .2 8.3-2.3 14.4-3 21-1.3 11.5 1.2 21.9 0 33 3.9 9.8 10.8 16.6 17 24 9.3 3.4 22.2 2.5 26-5 .7-10.7-1.3-24 1-33 3.8.2.6 7.4 3 9 3.4-.3 5.7-1.6 10-1 1.3 10.7 5.9 20.1 3 32 3.5 7.2 4 17.4 6 26-15.4.6-25.6.3-44 0-24.4-.4-59.7-3.6-104 6-5.1 1.1-12.2 1-16 6v5c45.8-11.9 107.1-12.3 162-7 4.7 2.8 2.7 7.3 4 13 .8 3.6 3 7.7 4 12 3.3 13.5 3.7 28 3 44 6.2 17.1 41.7 18.3 48 2 4.6-11.8-1.3-31.5 1-44 .7-3.7 1.5-12.1 9-10 4.7 19.4-1.6 46.7 14 57 9.5 6.3 28.6 6.3 36-1 1.9-2.1 1.6-6.4 4-8 3.6.5 5.8 1.6 9 0 3.7 4.3 10.3 5.7 17 7 6.9 6.9-1.5 17.3-5 20-.5.4-1.5 1.5-2 2-8.3 8.1-15.3 7-23 3-5.7-2.9-9.5-4.3-15-6-3.9-.9-1.6 4.4-6 3-11.5-.6-16.7-2.7-25 6-.4 6.9-2.2 12.4-8 14 .5-5.8-4.2-6.5-5-11 1.5-2.8 2.7-6.6 1-10-10.2-5.6-17.9 6.1-28 7-2.1 3.2-2.6 8.1-7 9-7.4-1.5-18.1-6.9-27-10-5.6-24.7-32.4-23.5-50-17-3.6-6-10.1-9.2-14-15 3.1-4.1 1.1-7.2 0-12 7.8 1.6 2-4.9 6-6 8-.6 15.9-2.7 24-2 7.5.7 14.9 5.9 21 2-2.9-7.8-5.9-15.5-15-17 6.3-10.3 22.9.4 31-6 2-6.6-3.2-11.2-6-16 1.7-2 7-.4 7-4-30.3-5.2-54-5.4-76-5-11.4.2-22.5 3.2-35 4-21.3 1.3-38.1 7.8-54 9 3.4 5.1 10 3.2 13 3 7.3-.6 14.7-7.1 22-6 9.5 1.4 12.1 18.2 22 17 4.2-.5 6.1-7.2 11-9 10.5-3.9 11.6 5.4 22 4 4-1.7 3.7-7.6 8-9 3.2-.8 7.4-.6 10-2 3.4-.6 2.2-5.8 6-6 18-5.5 49.1-3 49 19-12.1 3.2-32.9-5.2-34 10 6.5 2.2 12.9 4.4 14 12-15.9.1-38.6-6.8-49 8 0 3.9 2.4 6.8 0 13 4.7 6 12 9.4 16 16 8-2.7 25.2-6.5 36-3 9.6 3.1 10.7 12.7 13 20 10.3 3.7 19.5 8.5 30 12 6.6-9.4 15.7-16.3 30-18 .3 8.4 1.3 15 7 20 7.7-.3 9.9-6.1 10-14 5.4-7.9 23-3.6 34-6 6.7 2.4 11.2 8.5 19 9 14.8 1 29.8-15.2 26-28-2.5-8.7-15.2-5.8-21-13-4.5 1.7-8.4-.3-10-1 .8-7.1-1.2-11.4-1-18 6.7-1.4 10.7-4.1 17-1 3.5-.5 2-6 5-7 7.7-1 10.8 2.5 18 2 7 6.4 14.7 12 22 18 2.7 2.2-1.4 5 1 7 3.5 2.2 6-.7 10 1 3.3 2.1 3.4 7.2 6 10 7.7.7 5.3-8.1 6-12 7.5-3.3 20.4-4.3 26 1-.8 3.5-6.1 2.6-6 7 2.6 2.4 7.2 2.8 8 7-1.4 7.5-1 12.6-5 16-.8.7-4.8 1.8-7 2-1.8.2.5-1.9-1-2 .9.1-3.3 1.1-3 1-4.4 1.1-8.8 2.8-12 3 1.6.3-.1 1.4-2 1-2.7 4-2.3 11-7 13-6.5 2.1-16 2.9-19 7-2.2 3-.6 8.8-3 13-3.4 6.1-8.4 5.3-13 11 .4 3.6 1.6 6.4 5 7 7.2-3.2 6.5-10.5 14-13 10.9-3.6 22.1 4.3 33 6 2.4-9.3-4.4-12.9-4-23 6.4-10.2 21.3-12.1 31-19 11.8-1.2 18.6 2.7 27 5 3-.7 4.4-3 9-2 2.1 2.6 3.6 5.8 4 10 18.3-.1 39-.7 46 13 6.2.8 11.1 2.9 19 2 2.7 2.3 5.8 4.2 7 8 1.2 4.6-4.2 5.6-1 9 15.1 8.5 26.1 21.2 46 25 6.4 7.7 16.4 15 24.9 22.6h4.5c-19.4-18.2-41.4-33.8-59.4-53.6-17.1-12.5-38-21.1-55-32-6.1-3.9-10.9-9.2-17-13-6.2-3.9-14.1-6.2-21-10-6.5-3.6-12.5-8.4-19-12-13.5-7.5-28.8-14-43-20-14.7-6.2-30.5-11.3-46-16-12.6-3.8-24.9-5.1-36-7-3-.5-8.2-.5-10-4 2.6-5.3 8.4-2.2 12-2 15.2.8 26.6 6.3 38 10 50 16.2 92.7 37.8 133 62 27.8 16.7 55.2 31.4 79 51 17 14 33.7 30.6 49.5 46.5 3.4 0 6.8-.1 10.1-.1-29.2-29.5-61.6-56.8-95.6-80.4zm-418-91c-11.3 2-13.1-8.4-25-4-5.4 2-6.2 7.4-11 7-8.2-.6-6.4-12.6-16-14 23.9-6.8 50.3-6.4 74-7-4.2 9.2-20.1 6.6-22 18zm427 115c13.5 6.5 20.4 19.6 33 27-13.8 3-22.8-14-35-19-.8-4.2 1.9-4.7 2-8zm-92-57c9.7 6.4 19.1 9.7 27 14 9 4.9 16.1 12.1 24 17 9.3 5.8 17.7 10.4 27 14-1.4 3.5-8.7 1.4-14 1-10-12.7-23.3-15.6-43-15-2.5-4.2-6.5-6.8-10-10-4.7-1.6-3.3.8-8 1-8-2.3-14.7-5.9-26-5-3.7 1.5-5.9 6.1-10 8-2.4 1.1-5.8.2-8 1-6 2.1-12.9 7.8-14 13-1.7 7.9 3.8 10.6 4 22-3 2.1-6-2.9-9-4-5.1-.7-7.1.3-12-3-4 2.3-6.9-.7-10 0-7.8 1.7-9.7 12.2-18 10 0-3 3.5-2.5 6-3 4.6-5.1 9.2-10.2 10-19 8-6.6 26.5-2.8 24-20 6.9-4.5 15.1-4.3 24-5 5.2-3.4 8.7-11.7 7-19-1-4.2-4.7-4.9-5-9 8.3-8.1 26.6 6.1 34 11zm-48-24c-3.2 2.8-9.8 2.2-12 6 .3 5.5 2.8 10.9-4 11-.5-4.9-4.7-11.9-14-11-1.8-10.5-11.4-13.2-17-20 15.4 1 31.7 9.6 47 14zm-80-94c.5-5.8 1.1-11.6 2-17 .9.8 2.3 1.1 4 1-4.5 2.8.1 14.7-6 16zm4-28c-1.7 3.5-2.6-2-2-4 5-.7-1.3 3.7 2 4zm-1 9c.4-1.3 1.8-1.6 2-3 4.2.7.5 6.2-2 3zm1 19c.3-5.1 2-8.7 3-13 5.7-.7 8.9 1.1 14 1-3.7 5.4-6.5 16.7-17 12zm19-15c-9.4-.1-9.7-1.2-16 0 .9-1.8 2.8-2.5 2-6-1.2-4.6-6.2-1.3-7-2 4.3-5.3 13.8.7 21-1zm-18-12c.3-.6 2.5-3.9 0-4 2.5-.5 12.3.3 18 0-1.1 10-10.8 2.3-18 4zm17-7c-8.7 1.7-11 .2-20 0-1-10.3 2.3-18.3 13-14 2.4 4.6 4.5 9.5 7 14zm-20-43c-1.3-9.7-6.5-18.1-6-27 .2-2.8 2.4-4.5 3-7 2.1-9.6-.9-20 1-29 5.3-.1 8.9.1 11 1-2 10.7.1 16.2 3 24 1.2-.3 3.8-4 5-1 .2 2.5-1.5 3.1-3 4-.1 4.4 3.3 5.4 4 9-2.1 16.3-3.5 33.8-6 52-3-1.4-3.6.5-8 0-6.1-7-2.8-16.7-4-26zm-100-14c-13.7-1.5-27.8 7.4-37 9-1.1-4.1 3.2-10.6 6-14 15.2-7.6 34.9-5.9 54-3-15.7-6.9-39.4-6-55 2-4.9-9.5 5.2-11.9 4-21 14.1-15.7 38 3.1 47 14-3.4-9.2-16.9-17.1-29-21 11.4-4 32.7-2.6 40 12 0-6.3-8.6-9.4-8-13 18.6.9 30.8.8 51 1-1.6 3.7 2.3 9.4 7 10-3.2 6.7-11.8 4.2-19 5-10.7 1.2-22.1 2.5-28 10 11.1-7.9 35.3-8 49-10 2.1 2.2.8 6.7-1 8 5.6 6.1 5.2 23.1 10 26-17.3-5.4-35.7-6.3-52 3-.8-6.5-2.3-12.4-2-20-1.7 7-2.1 15.2-4 22-3.5-1.2-3.1-6.3-3-11-4.3 0-2.7 6-3 10-13.2-8.6-36.5-15.7-55-10 8.4-7.4 27.8-8.9 40-4-3.3-2.5-7.9-4.5-12-5zm-57 6c.1-2.2 4.2-.4 6-1-.2 3.5-.8 6.5-5 6 .8-.7 2.6-6-1-5zm-20-2c-2.9.5-8.2-2.2-7 4 .6 5.2 6.7 2.6 10 3 8.2 1 17.2 1.6 22 2 .6 7.9-10.5 4.2-17 5-1.8 4.7-1.9 12.3-3 15-7.5-1.1-10.9.2-21-2-1.6-17.6-1.7-38.3 1-54 14.1.1 30.1-.4 40 1 3 8 5.1 15.5 1 25-12.2-.4-19.7-.2-26 1zm18 6c-4.6 1.5-12-1.8-19-2 4.8-4.7 8.7-2 19-3-1.2 1.5-3.5 4.2 0 5zm-21-2c-1.4 4.4-4.1-4.7 0-3-.7.8-1.6 2.7 0 3zm19 33c-10.4.1-8.5-13.9-5-20 4.6.4 11-1 14 1-5.4-.8-6.1 8.4-11 11-.2 3.5 4.2 5.5 2 8zm-21-128c13 1.9 20.7-3.9 26 9-12.1-.9-18 1.7-24-3 .3 6.2.3 6.8 0 13-2.8-3.8-2.9-10.4-5-15 2.1-2.2 3.2.1 5 1-.4-1.9-2.2-2.5-2-5zm-7-56c6.7-11.5 24.3.8 27 9 1.6-9.2-13-11-18-17 3.9-3.7 10.7-8.5 15-8 10.6 1.3 12.5 21.2 18 29-11.4 2-9.6 13.8-10 25-3.3 1.2-3.1-.1-8 1 .5-15.3-7.9-34.2-24-39zm-4-38c4.4 2.3 2.6 10.7 3 17 2.5-.9-.3-7 2-8 7.1-1.7 17.9-1.2 24-1v10c-10.2-1.2-17.4 10.1-26 4-2.1 5.4 2.9 3.5 6 3-2 3-3.3 6.7-9 6-1.3-7.6.8-18.8 0-31zm26 66c.2 4.4-3.4-.9-4-2-10-5.7-12.4-19-26-21 13.6-12.2 26.8 11.7 30 23zm41-27c4.1-2.2 1.5-12 1-16 5.3 4.5 5.8 13.8 2 20-1.2-.2-.8-1.8-1-3-.7 4.6-5.4 4.3-10 7-5.6-8.8-4.3-18.8-7-31 12.9-5.2 18.4 9.8 15 23zm-4-25c4.2.2 3.7 5 6 7-2.3 1.9-4.7-4.6-6-7zm33 10c-.1-1.8-3.4-.6-4-2 8.6 1 25.7 0 35-1-2.1 3.9-7.8 4.2-6 12-8.3 2.9-11.4 5.4-23 4-6.2 4.7 1.7 11.1 0 16-3.5 1.7-6.2.3-12 1-1.9 2.9-1.1 10 0 13 12.4 1.6 29.5-1.5 32 10-10-2-19.9-4.1-28-8-2.9.1-1.8 4.2-2 7-3.3.3-4.4 2.9-9 2 .7-7.9-1.8-19.1 2-24-5.3-.3-3.8 6.2-11 4 3.1-6.1 6.5-12.8 10-19 3.2-5.7 5.8-13.6 13-15-6.2 8.9-1.3 19.3-6 29 7.4-5.3.8-24.5 9-29zm-22-48c1.7-1.7 4.1-2.6 4-6 2.7 4 1.7 11.6 4 16-3.1-.7-2.9 1.7-6 1 2.5-2.2 6-12.2-2-11zm-5-4c-3.3-.4-4.4-2.9-7-4 1.4-2.3 7-.4 10-1-.9 1.8-4.1 1.3-3 5zm2-13c1.3-1.2 1.6-.4 3 0-.2 1.1-2 .7-2 2-1 0-.8-1.2-1-2zm0 10c4.1 2.2.7 13.1-1 16-1.9-3.6.5-11.5 1-16zm3 11c1.2-3.2 1.1 2.7 1 4-1.1 3.2-1.1-2.7-1-4zm2-15c6.1.2 21.7-.4 25 6-5.9-.6-17.3-4-25-6zm33-30c9.7-1.4 18.9.3 25 5-15.7-7.4-39.9.7-50 11 1.8 6.9-3 7.3-3.9 11.5 0 .2 0 .3-.1.5 0-.2.1-.3.1-.5.1-1.8-2.5-4.6-2.1-6.5.9-5.1 18.6-19.2 31-21zm-27-2c9.4-4.5 22.1-.1 34-1 1.8 1.9-5.2.9-6 1-11.4 2-21.5 10-30 16-.4-6.4 1-11 2-16zm64 0c4.9 1.2 5.5 12.9 0 14-1.3-3.7 2.4-8.3 0-14zm8 20c.1 4.6 2.9 6.4 2 12-5.8-5.5-7.6-15.1-15-19 4.8-2.2 7.5 9.7 13 7zm3 26c1.3-1.4 4.3-1 7-1 .8 4.8-1.6 6.4-1 11-4.4-.7-4.4 2.9-8 3 .8-4.2 2.6-7.4 2-13zm30 40c-9-1.3-4.4-14.3-7-23-2.6-8.5-8.1-11.1-12-17 9.4.2 13.5-2.1 23 0-6.4 15.5-2.4 21.2-4 40zm19 67c-3-4.8 1.4-9.6 3-13-3.9-1.9-3.4 9.2-9 9-4.7-4.9 1.5-12.1 3-17-4.7 1.6-2.9 9.7-8 11-3.2-13.7 4.2-25 14-29-2.4 10.5 8.7 34-3 39zm7-9c-.3-2.4-1.6-3.8-1-7 6.8-.9 13.2-2.2 21-2-3.5 5.5-16.4 6.9-20 9zm8 6c-3.6.5-4.6.7-9 2-.3-2.3 2.9-1.1 3-3 2.1-.2 11.5 0 6 1zm14 2c2.2.8 3.1 5.4 6 3-.7 3.1 1 3.6 1 6-11.1-6.3-20.2-10.8-32-3 1.2-6 16.7-8.9 25-6zm-23 46c-.6 8.8.9 20.3-5 23-8.6-5.5 1.2-20.1-7-27-.8-9.5 5.3-12 4-22 1.8.6 5.9-1.2 6 1 3.9 5.7 2.8 14.5 2 25zm-1-24c6.3-3 13.6 1.8 21 1 .4 4.6 2.4 7.6 3 12-5.6-1-13.2-1.3-20-2-1-4-1.8-8.2-4-11zm-19-10c-3-1.6-6.7-2.7-9-5-.7-6.7 1.2-10.8 3-15 6.7 7.3 18.8 9.2 20 22-.3 3.4-4.5 2.8-6 5-.7 3.7-1.1 7.6-2 11-4.6-3.4-3-13.1-6-18zm4 32c-2.4.4-2.2-1.8-5-1-.1-5.5 0-9.9 1-12 3.9 1.9 5.8 8.5 4 13zm-111 2c23.7-2.8 57.6 2.2 82 1-.3 5 3.8 5.5 3 11-28.5 1.4-62-4.3-89 0-4.2-3.5-13.3-5.6-17-4 2.9-4 13.5-7.1 21-8zm-17 2c.4 2.8-3.7.9-4 3-2.9-1.4 1.2-4 4-3zm102 14c1.4 2.3 2 5.3 3 8-4.4.8-3.4-3.9-6-5 .1-1.9 3.3-.7 3-3zm2-8c8.3-1.7 5.4-14.6 8-22 3.7 7.6.5 23.8 0 38 4.1-3.2 2.6-9.6 3-20 .3-6.8 1.1-10.9 1-18 1.4-.6 2.4-1.6 3-3 1.6-.3 1.7.9 3 1-2.9 15.1-1.2 34.8-5 49-9.2-3.4-10.9-14.5-13-25zm3-26c1.9 7.6-.5 15-4 20-5-.7-3.4-7.9-6-11-3 1.2 1.1 3.4 0 6-31.4 4.4-43.2-1.7-78 0 2.4-3.3 8-3.4 12-5 1.4-4-2.2-3.2-2-6 3.1-1.9 3.7-6.3 7-8 22-.8 36.1 1 53 6-11.3-8.1-29.6-7.1-48-8-7.8-.4-19.2-2.4-22-1-4.4 2.2-5.6 9.1-10 10-4.8.2-5-6-10-6-4.1 0-8 2.3-8 7 .1 12.5 25.3 4.9 37 4-11.1 5.6-18.3 11.4-32 10-4.5 6.5-7.2 14.8-17 16 .3-16.3-1.8-30.2-1-47 2.3 1 4.9 1.8 8 2-.2 3.2-2.3 4.4-2 8 10.3-2 14.1-10.6 18-19 6.6-2.4 14.7-3.3 20-7 4.2.2 8.4.4 9-3 3.7 3.2 8.3 2.1 13 3 8 1.6 16.2 7.7 24 9 9.3 1.6 19.8-1.4 26 6h10c-1.5 4.1-8.9 2.4-12 5 .2 3.9 0 7.4-1 10 5.5-1 5.9-4.8 5-10 11.3.5 15.9.5 23-3 .5 4.4 3.2 3.4 3 7-.3 6.3-7.4 5.4-15 5zm-94 2c1.2-4.1 6.6-8.4 12-5-1.2 3.1-3.3 5.4-6 7-2.9.3-3.1-2.3-6-2zm6 4c-3.4 2.3-8.4 2.9-14 3-.2-6.4 11-5.6 14-3zm7-10c.4-2.2 4.9-.4 7-1-3.8 3.9-4.4 10.9-11 12-.1-4.6 8.8-8.1 4-11zm-28 4c1.3-2.8 4.8.5 5 2 2.1 2.4-2.6-2.5-5-2zm-1 9c.2-.8 1-1 1-2h2c.5 2.1-1.4 1.9-3 2zm-3-5c-2.5-.2-.3-3.4 0-4 3 .7-1 2.1 0 4zm-3-67c3.6-.4 5.3-2.7 10-2-1.5 10.5-6 18-14 22-2.7-6.7 5.3-11.3 4-20zm31 22h3c.3 2.3-.2 3.8-1 5-.8-.5-1.6-1-3-1-.1-1.8 1.2-2.1 1-4zm7 8c-1.8 2.6-7.7 1.6-11 0 2.4-4 6.6.2 11 0zm-3-2v-5c3.5-.1 5.8.9 5 5-1.9 1.9-1.8-.6-5 0zm-6 6c-5.1.9-7 .8-10-2 1.2-3.7 10.6-2.3 10 2zm-8 2c-4.9-.3-9.3 2.7-12-1 2.2-2.8 11.9-5.4 12 1zm-17 13c-.1 5.5-4.8 6.5-9 8 1.1-3.2 2-6.6 2-11 3.1-.7 3.6 1 6 1-.2 1.2.2 1.8 1 2zm-6-5c1.9-2.9 10-5 10 1-2.7 2.2-7.3-.1-10-1zm7-7c2.3-2.2 6.2-.4 6 3-2.6 1-6.5 1.6-6-3zm12-8c-8.7 0-13.8 8.8-18 10 1.1-4.2 3.2-7.5 4-12-1-2.7-6.1-1.2-6-5 7.1-3.6 8.5-12.8 20-12zm-26-7c-3-3 1-13-2-16 .7-2.9 6.4-4.1 9-2-2.4 5.9-3.4 13.3-7 18zm0 10c-.5-4.7-2.3-9.3 4-9 1.2 2.1-.6 8.3-4 9zm6-6c2.4-.4 2.2 1.8 5 1-2.2 6.5-4 19.2-13 13 1.5-5.8 6.9-7.8 8-14zm-3 24c-3.5.8-3.8-1.5-7-1v-7c6.2-.3 8.8 3 7 8zm49-20v-3c1.9-2 4.7-.5 7 0v4c-1.4 1.4-4.9-.2-7-1zm8 1v-3h3v3zm-9-34c11.1 8.2 18.8 19.9 26 32-10.1-3.5-16.9-18.2-27-25 1.4-1.3 1-4.3 1-7zm13-8c0-3 3.5-2.5 6-3 .4 3.4-4.3 1.7-6 3zm6 1c-.2 1.4-3 .3-3 2-2.5-.4 1-2.9 3-2zm-2 4c7.5 8.5 30.7 1.3 39 9-2.4 3-6.1-1.2-9-1-6.3 2-7.7 9-7 18 4.7 5.3 13.4 6.6 24 6-.7 4.4 1.7 5.6 1 10-15.6-2.7-48.7-3.3-44-29-.5-3.5-6.5-1.5-10-2-2-3-3.8-6.2-7-8 2.6-2.8 8.3-2.4 13-3zm9-20c3.9-1.3 2.6 2.7 4 4 5.8-.4 10.2.4 15 1 1.6 4.6-.2 11.8-1 17-5.5.7-13.5 1.2-23-2-1.7-6.6.8-16.1 5-20zm25 15c7.6-1.2 4.9 7.7 10 9 1.8-.2 2.3-1.7 2-4 6.5 2.7-.4 7.7-2 11-3.8-3.5-9.2-5.5-14-8 2.8-1.2 4.4-3.6 4-8zm11 7c-3.9 0-5.7-5.5-4-8 5.2-1.2 3.9 4.1 4 8zm16 12c-2 3-7.7 2.1-10 0-1.3-9.3 10.1-5.8 10 0zm-8-12c1.5 1.9 5.2 1.5 5 5-1.6-1.8-4.6-2.1-5-5zm6 4c4 3.2 14.3 9 8 16 1.6-6.2-5.8-10.4-8-16zm8 48c-.6 3-4.5 2.8-6 5-2.8-2.5 3.6-4.4 6-5zm-9 3c.4-1.2 1.3-2.1 3-2-.4 1.2-1.3 2-3 2zm-1-2c-1.4 2 3.1-5.8 7-5-2.2 1.8-4.1 3.9-7 5zm-22-13c3.1-.7 3.6 1 6 1-.8 1.9-1.7 3.7-2 6-2.4-1.3-1.9.1-5-1 0-2.4 1.7-2.9 1-6zm-7 6v-7c2.5-.1 4.8-.2 6 1-.1 3.9-1.2 6.8-6 6zm20-3c-.6 3.7-3.4 5.2-7 6-3.6-3.9 3-9.9 7-6zm6 3c-1.9 5.2-4.6 6.2-11 5 3.9-1.6 6-10.5 11-5zm-6-24c4.5 2.1 5.8 7.5 13 7v16c-12.4.4-11.8-12.2-13-23zm11 28c-3-.3-3.9 3.2-6 1 .4-3.3 5.5-5.8 6-1zm-9-45c-.5-2.1 1.4-1.9 3-2-.4 1.2-1.3 2.1-3 2zm12 18c-.5 3.5-5.8 1.6-8 1-.1-5.5-6.9-8.7-11-7 2.8 1.5 3.4 5.2 3 10-11 1-13 1-22-4-.2-2.5 1.5-3.1 3-4-.7-.9-1.8-1.5-3-2 .3-1.4 2.5-.8 4-1-4.8-3.8.3-.9 0-7 17.5-.5 25.3 4.5 34 14zm-55 18c-5.6-.1-4.4-2.4-4-7 2.3-.3 3.8.2 5 1 .7 3.1-1.7 2.9-1 6zm2-6c3.2-.6 4.7.7 7 1-1.4 1.3-1 4.3-1 7-2.8 1.2-4.2.2-7-1 .3-2.3 1.6-3.8 1-7zm8 2h5v5c1.8-1.2.2-5.8 5-4v7c-6-2-4.5 0-12 0 .5-2.8 1.5-5.2 2-8zm-15-4c.7 3.1-1.7 2.9-1 6-1.2-.8-2.7-1.3-5-1v-6c2.4 0 2.9 1.7 6 1zm71-20c3-7.1 11-15.2 17-17-7.4 8.9-17.2 15.5-17 32-5.2-1.2-1.2-6.6 0-10 .5-1.5-.6-3.6 0-5zm4-33c5.2-1.9 14.3 1 21 1-.5 5.8 2.4 8.3 3 13-10.1-2.6-14.6-10.7-24-14zm21-2c-9.5 1.1-14-1.3-24-1-1.6-5.8-.4-10.6 0-17 10.9.7 20.2 1.4 29 2-1.2 5.8-2.6 11.4-5 16zm-20 7c-2.1 5.9-10.4 5.6-11 13 4-6.2 17.2-16.8 22-5-7.6 3.7-12.4 10.2-17 17-9.5-6.1-19.4-12-27-20-6.6.6-5 .3-11 1-3.3 1 .3 4-3 6-2.4-3.5-.2-10.8 1-14-2.7-4.9-11.5-2.1-17-3-1-2-2-4-3-6 8.4-.6 19.7 1.7 20-7 3.1 1.6 3.8 5.5 7 7 12.3.3 15.6-.3 24 2-1.8 5.6-8.6 6.1-10 12 5.3-5.7 17.3-17.1 25-3zm-19-17c-8-.6-12.1 2.7-20 0 1.7-1.6 5-1.7 6-4-.9-7.8 1.4-17.7 4-25 8.8 4.2 10.4 15.6 10 29zm-19-22c5.1 2.8-.9 10.8 1 17h-14c4.9-5.1 7-13 13-17zm-25 20c-1.1-.2-.6-1 0-1 9.7-7 16-17.3 18-32 2.2 15.2-7.1 27.5-18 33zm6-43c-1.3-.7-1.9-2.1-2-4 3-1 1.8 2.2 2 4zm-1-7c-.9-1.1-3.7-.3-3-3 2.2-.2 3.2.8 3 3zm-7-9c1.5.5 2.5 1.5 4 2-.6 2.4-5 .5-4-2zm6-4c-.5-2.9 4.9 4 7 5-2.3 2.3-4.7-4-7-5zm14 25c-4.2-4.2-3.5-13.2-8-17 3.7-.5 7.6 10.6 8 17zm-7-31c-8.6-2.4-13.2-8.8-23-10 5.3-1.6 15 1 23 0 .2 3.2 2.3 7.4 0 10zm-17 73c7.2-.2 13.3-3.1 20-3-2.2 4.5-9 3.4-13 4-10.9 1.7-25.7 3.8-34 2 1.1-8 23.2-2.9 27-3zm-33 48c-2.6.5-2-7.2-4-4-2.8-.4-.1-3.1 2-2-.3 2.9 2.3 3.1 2 6zm-41-33c-2.4-4.9-8.1-6.6-8-14h5c1.1 4.6 2.3 9 3 14zm4 16c-2.9 1.5-6.6 2-9 4-5.3-9.7-9.7-20.3-15-30 2.7-1.3 5.6-2.4 10-2 5.8 8.2 10.9 17.1 14 28zm-56 81c3.7-.7 4.3 1.7 8 1 3-1 2-6 3-9 2.2-.2.5 3.5 1 5 2.3-2 .4-8.3 1-12 7-1.5 12.9.6 25 0v21c-8.2 1.3-15.1.4-24 0 .2-3.2-1.8-4.2-1-8-2.5 11.8 1.2 29.9-14 29 .9-8 1.2-15.9 1-27zm-2-2c1.9-3.1 1.9-8.2 4-11 3.2-.2 4.2 1.8 8 1-1 3.3-.5 8.2-2 11-4.4.8-6-1.3-10-1zm13-11c.7-2.8 1.2 2.3 1 3-.5 2-1.9.8-1-3zm3-5v-5h24v6c-9.4-.1-18.3.4-24-1zm24 28c-.7 5.9-6.4 3-9 3-4 0-8.4.2-15 0v-5c10.2.2 18.1-.6 24 2zm-25 5h23c-.4 4.6-2.5 7.5-5 10-11.1-1-12.4.1-22-1 .6-3.7 2.8-5.9 4-9zm26-29c1.2-.2 1.8.2 2 1 .7 12.3 1.4 24.6 1 38h-7c5.2-9.2 4-24.6 4-39zm0-17c-4.4-1.9-10-5.8-8-11h4c-1.8 6.8 5.5 4.5 4 11zm-31 5c-.2 4.8 1.3 8 2 12-4.4.5-5-1.4-8 0-.6-4.4-2.6-7.4-3-12zm-8 6c3.2 3.7-1.8 10.2-2 15-5.1-1 .2-17.1 2-15zm39-37c-.3-5-2.1-9.6 0-13 1.9-.1 3.3-.7 4-2 1.3.4 1.6 1.8 3 2-1.7 12.2 1.4 18.9-1 32-7.4-.3-5.5-11.7-6-19zm21 69c3.3 2.1 10.9-.2 14 2-.5 5.1-7.2 4.1-11 6-4.2 6.5-10.4 10.9-18 14-6.5-12.1 10.7-14.4 15-22zm-13 27c.8-3.2 2.8-5.2 6-6 .6 4.6-2.5 5.5-6 6zm1 6c6.1-5.2 8.7-13.9 14-20 2.7 4.7-3.6 9-5 13 .6 2.1-1.2 6.6 1 7-5.8 7.2-1.3 24.7-14 25-1.3-11 5.2-14.1 4-25zm79 22c3-.4 2.1 3.3 3 5-1.8-.1-2.1 1.2-4 1 0-2.4 1.7-2.9 1-6zm-7 14c5.1 2.2 4.7 10 7 15-1.1 2.3-6.3.4-9 1 .3-5.9.9-9.3 2-16zm6 4c.5-14.5 21.8-19 38-18 9.8.6 22.2 3.1 24 11-11.7-5.9-28.9-9-43-4-3 1.1-6.6 3.3-9 5-3 2.1-5.4 7.6-10 6zm49-42c2.1-4.2 1.7-6.5 0-11 8.5 5.6 6.6 15.1 9 24 1.4 5 6.2 8.9 5 15-11.1-6.2-5.8-19.3-14-28zm53-6c-9.6-.6-10.7 0-20-2-.7-5 4-4.7 3-10 8.1-.8 13.5 1.2 21 1 .1 5.1-2 8-4 11zm-14-14c-1.7-.4-3.6-.4-3-3 10 .1 14 .1 22 2-1 2.3-12.1 2.5-19 1zm19-4c-10.2-.1-9.4-1.2-21-1-.2-7.5.5-14.2 2-20 5.9 1.4 13.5 1.2 20 2 .3 8.7-.4 13.2-1 19zm-20-23v-3c5.7-.8 19.5-1.7 22 4-6.8 1.9-16.3-.3-22-1zm28-6c-2.8-.8-2.6 1.4-5 1 .1-1.4.2-2.8-1-3 .8-3.2 2.8-5.2 6-6-1.3-4.2-3.3.9-7 0-1.8-3.4.2-6.5 2-9-4.1 1.5-5.7 5.6-13 4-1.2-1.2-1.1-3.5-1-6-3.3 0-2.4 4.2-5 5-3.9-1.7-8.8-2.5-8-9 14.2-16.5 44.6 3.7 32 23zm-6-49c-.8-2.5-1.3-5.4-1-9 8.2 4.3 11.6 18.1 9 30-4-4-9.1-6.9-16-8 2.6-2.5 9.2-.6 11 1-1.3-6.2-11-3-20-3 4.9-4.4 13.8-4.9 17-11zm-4-22c-.3 8.2.4 13.9 1 19-7-1.1-12.7 1.6-22 2-.3-8.7.8-18.8-1-26 8.2.8 14.5 3.5 22 5zm-26-78c3.1 4.2 1.4 13.3 6 16 7-1.8-.8-16.1 6-16 3.9 3 1.7 9.1 2 14 .5 7.3 1.7 15.6 1 23-10.8-.5-20.5-1.3-29-2-.8-10.7 8.3-15.4 7-25-.7-5-5-4.5-5-11 4.4 0 9-.3 12 1zm-11 4c.9.8.6 2.7 2 3 .3 8-.1 15.2-6 17-.3-7.6 6.4-12.7 0-18-16.9-1.1-30.2.8-49 4 13.1-6 35.6-7.6 53-6zm-39-29h4c3.1 5.6 7.1 10.2 7 19-4.5-.2-4.2 4.5-4 9h-6c-.8-1.9-1.7-3.7-2-6 4.2 2.5 5.1-1.6 8-3-.7-3.3-1.6-6.4-2-10-.9-2.7-1.9 2.7-5 1-2.6-3.9-.6-4.9 0-10zm3 12c1.7 1.4 2.9 6 1 8-3.9.3-3.9-7.2-1-8zm-102-14c10.3-1.1 14.1-8.6 19-15 24.7-3.2 49 2.2 74 2 5.2 4.1 6.7 16.2 2 22-3.3-3.5 1.2-15.1-3-20-24 .3-42.4-1.9-68-2-1.7 12.1-4.4 25.4-4 34-2.7-.5 1.4-10.6-6-11-4.4.9-2.9 6.8-2 9-2.6 1.6-4.3.2-9 1 .2-6.8 3.4-10.6 6-15-5.8-.2-4.4 15.6-14 15 1.6-8.5 5.5-11.2 5-20zm-20 50c-.3-16.7 4.5-28.2 21-28-13.6 5.5-19.9 22.2-19 39-2.9-.1-6.5.5-8-1 .8-4.5 3.4-7.3 6-10zm-5 14c3-1 7.2-.8 9-3-6.2-16.6 10.9-16.6 10-31 2.2-1.1 3.3-3.3 6-4 4.9.8 6.8 4.5 11 6-1.9 4-5.6.3-9 2-.5 4.8 3.9 5.4 7 4 1.4 5.5 3.1 6 6 11 1.5-1.5 5.1-.9 8-1 2.9 5.6 8.7 5.8 9 12 2.4 0 2.9-1.7 6-1-1.2 4.4 3.1 6.1 6 9-1.6 5.4-3.2 10.8-12 9-4.6 12.1-11.9 21.4-17 33-3-5.3 1.7-10.9 2-17 .4-8.3-6.3-13.6-7-23 3.2-2.4 12.9 1.5 12-5 3.2-.9 1.4 3.3 3 4 3.7.7 7.3 1.4 12 1-1.9-4.8-7.4-5.9-10-10-2.1 1.5 3.4 3.9 3 7-3.7.1-4.9-2.5-7-4-3.4-.7-1.6 3.7-4 4-3.6.2-6-.7-7-3-.6-5.9 6.3-4.4 5-11-3.4 1.3-2.9 6.4-8 6 .2 3.2-1.8 4.2-1 8-8.9 1.5-23 3.5-33 8-2.7-2.4 0-8 0-11zm-6-35h4c1.2 3.5-5.6 4.6-4 0zm-3-3c2.9-.2 0 6.1 2.2 8.4.2.1.4.3.8.6-.3-.1-.6-.3-.8-.6-1.1-.6-1 .6-3.2.6-.5-3.9 1.8-4.9 1-9zm7-5c.2 3.9-8.9 2.2-9 0 .8-1.7 8.2-1.7 9 0zm-39 1c3 .3 7.8-1.1 8 2 2.8.4.9-3.7 3-4 2.9.1 6.5-.5 8 1 .6 4.5-2.7 8.5 0 12 6.5.2 3.7-8.9 6-13 6.3.3 4.7 8.7 5 15 2.2 1.5 5.6 1.7 9 2-1.3 7.1 1 18.3-1 25-5.9 3.5-18.2 1.4-24 3-3.4-6-3.2-12.7-6-19-3.5-7.8-13.3-14.6-8-24zm20 89c1.9 2.1 2 5.4 4 8 4.6 5.9 15.3 10 9 17-7.8.1-10-5.4-13-10-8.8-7.4-23.3-4.9-34-4 1.8-21.1 22.7-23.3 34-11zm-32 15c6.5-3.9 17.8-5.4 26-2-12.1.9-14.4 11.6-26 13-.7-3.7-1.7-7.6 0-11zm1 19c-.7-3.1 1-3.6 1-6 10.4-2.9 11.9-14.7 28-12 4.2 9.8 19.1 8.9 18 24-2.9-.8-6.6-1.1-9 0-2.9-6.1-6.5-11.5-13-14-5.1.6-7.7 3.7-10 7 2.5 1.2 5.1-6.2 11-5-5.4 5.2-10.2 6.7-18 8-1.2 3.2 3.2.8 2 4-2.1.9-3 3-6 3-.8-3.3.5-7.4-4-9zm6 13c3.9-8.5 23.8-24.8 29-8-3.5.5-3.3 1.2-6 0-1.6 2.4-2.1 5.9-4 8h-5c-3.1.9-1 7-3 9-7.4.8-8.6-4.7-11-9zm42 167c-12.9 9.8-18.5-7.2-24-14 5.2-.6 18.4-.4 25 1-.7 3.4-1.2 6.6-1 13zm1-18c-6.2 3.9-20.8 1.6-26 1-.3 5.2 6.9 11 8 18-8.2-6.3-16.5-17.9-14-29 11.7-.7 20.4 1.6 32 1zm-10-11c-6.8.4-12.3-1.6-22-1v-5c13.9-.1 21.9 0 33 2-.7 6-6.8 3.8-11 4zm-21-8c-2-3.3-.5-10.1-1-15 9.4-.7 16.3 1.1 25 1 2.3 3.3 3.4 7.9 7 10 3.5.8 3.8-1.5 7-1 .1-4.5-2.5-6.2-3-10 2.3-2.1 3.6-5.1 5-8 11.6-3.9 10.1 9.4 12 18-3.1.7-2.9-1.7-6-1-13 9.9-27.8 5.8-46 6zm50 8h-7c3.8-2.5-3.4-8.1-4-7.1v.1c0-.1 0-.1 0-.1.7-1.7 12.3-8.3 14-1.9.8 4.8-4.4 3.6-3 9zm23 143c-1-17.6 2.8-46.1-7-58-2.8-8 .6-18.6-1-25-.7-2.8-3.3-4.1-4-7-1.4-5.5 1.3-12.2-3-17 2.8-21.6-5.3-46-6-64 8.2-9.2 28-14.9 43-11 3.8-.2.4.8 1 3 2.1 1.2 3.9 2.8 6 4-.4 2.2-2.3 5.4 1 6-12.5 4-29.3 4.8-38 15 7-.4 20.5-7.7 33-6 5.6.8 13.4 4.2 14 9 1.5 12.3-14.4 7.7-21 14 .6 4.3 4 1.9 2 7 3.2 1.5 9.3 0 12 2-5.2 7.5-23.7 1.6-26 12 5.5 1.9 22.7-7.1 28 1-4.7 5.4-22 1.3-25 11 6.4 2.6 13-1.1 21 0-.8 6.6-8.3.8-10 7 3.6 2.9 8.6-1.4 14 0 2 4.5-.1 10.4-4 12 4.3 7.6 0 16.7-3 23 .6 4.5 6.4-1.9 6 4-9.2 2.4-18.9-3.6-22 9 4.3 4.3 11.6-2.2 20 0 3.2 12.1 4.4 31.9-3 43-1.1 3.7 3.4 2 4 4-5.3 14.9-22.6 10.5-32 2zm17-121c-.1 2.6-3.7 1.6-5 3-2-.8 3.2-2.7 5-3zm25 13c1.3 5.7 2.3 13.4 2 23-.1 2.3-2.1 4.2-2 6 .3 7 4.1 14 2 23-.9 3.8-4.3 6.4-5 10-2.2 11.9.9 25.9 0 36-.4 4.5-.7 12.2-7 14 1.1-3.8 3.8-9.2-2-10 6.2-12.2 6.8-32.8 3-45-7.4-1.6-13.4 1.1-19 1 .8-10.5 23.3.6 22-12-1.2-2.5-4.3-1.8-6 0-.8-5.7 7.2-15.4 2-23 4.8-.5 5.3-5.4 5-11-1-2.3-3.4-3.2-7-3 .3-2.4 3.5-1.9 3-5-6.6-4.8-11.5-.4-20-1 2.7-8.3 20.2-1.8 24-9-3.3-9.4-9.3-5.8-19-6 3.6-4.4 15.3-.7 17-7 3.8-1.2-3-2-3-3 0-.4 2.8-2.3 3-2-2.8-3.9-5.6-2.7-13-4 7-4 17.7-4.3 20-13-3.8-14.6-26.4-14.9-40-9 6.6-7 22.2-5.1 31-10-2.6-3.4-2.3-9.7-7-11 6.2-.2 13.3 7.4 20 10-6.2 21.6 3 41.1-4 61zm-24-79c-16.5-2.5-28.1 8.5-41 10 3.7-9.2 23.4-14.6 39-13 9.6 1 29.6 6.9 32 16-10.6.4-17.8-11.2-30-13zm30 132c0-2.4 1.7-2.9 1-6h3c-.5 3.1 1.2 4.1 3 5-.8 3.6-3.2-.1-7 1zm3-14c-5-3.4-1.8-8.9-2-13-.1-2.3-.9-4.7-1-7-1.1-17.7 3.3-34 1-59 .4-1.3 1.8-1.6 2-3 3.1-.7 3.6 1 6 1 3.4 18.6 3.1 46.6-2 72-.6 2.9-1.1 7.5-4 9zm18 68c-10.3-7.9-7.5-30.1-9-46-.4-4.1-2.7-9.3-3-12-1.4-13.8 4.9-31.2 6-47 1.4-20.1 1.3-37.4-3-57 9.8-17.1 40.5-20.2 57-8-.7 5.6-10.8 1.9-12 7-.4 3.4.3 5.7 4 5-5.3 6.1 4.1 3.8 4 10-1.9-.2-9.9.7-7-1-.1-1.9-3.9.6-4 2 .2 3.8 7.4.6 9 3-3.2 3.5-.7 4.5 0 9-6.6.3-8.9-.9-14 0-.9 3.6 3.9 1.4 6 2-1 2.5-6.2 2.8-7 0-3.8 6.8 6.7 2.5 10 2 .1 3.8-5.8 1.5-6 5 1.7 2.3 7.6.4 11 1 .6 2.1 2.5 2.9 2 6-3.7 5.3-14.3 3.7-17 10 .1 2.9 4.2 1.8 7 2 1.6 10-8.6 8.1-13 12 .8 5.1 8.8 2.9 12 3 .2 2.9 1 7.4 1 13-1.9.8-3.7 1.7-6 2 2.5 9-1.4 14.8-6 23-5.8 2.1-9.6.3-13 5 1.7 1.9 5.2 2.2 9 2-3.8 4.5 3.3 4.8 6 6-3 7.4 3 17.3 3 27 0 2.1-1.7 2.9-2 5-.8 5.5 2.4 9.6-2 14-7.7-.4-17.5-.8-23-5zm55-34c.8 3.5-1.1 4.2-2 6-5.9-3.8-10.2-2.3-18-1v-8c6.9 2.9 13.1.5 20 3zm-15-47c-.9 5.7-.2 11-1 17-1.3 10.7-8.2 19.8-9 28-1.4 14.2 12.5 32.5-5 40 5.1-10.2 3.3-23.9 0-37-.4-3.4 1.7-4.3 3-6-2-2.6-4.1-5.2-9-5 .4-1.3 1.8-1.6 2-3-.2-3.1-5-1.7-8-2 11.3-1.5 18.3-12.1 16-24 1.3-2 4.3-2.4 6-4 .9-7.7-.6-10.8 0-15-2.4-3.4-5.7-.5-12-2 6.2-2.5 13.3-4.1 14-12-.5-.8-1-1.6-1-3h-7c5.6-4 15.2-4.1 18-11-1.6-3.7-3.5-7.2-9-7 1.6-1.5 3.5-5.2-1-5 2.6-1.4 6.4-1.6 8-4-1.1-.9-.3-3.7-3-3 4.9-4-.7-6.8 5-10-1.2-2.5-3.4-3.9-6-5 .4-1.3 1.8-1.6 2-3-.7-3.3-4.6-1.8-5-3-1.5-7.6 9.8-2.2 11-7 7.9 4.2 1.9 13.4 1 21-.7 6.3 1.8 13.2 1 20-.2 2-1.8 4.1-2 6-.4 4.6.7 9.6 0 14-1.3 9-7.7 16.4-9 25z"/><path d="m364-199.3c-2.2 3.1-6.4-1.2 0 0z"/><path d="m316-186.3c3-3.7 3.4 3 0 0z"/><path d="m369.1-200.7c0 .2-.1.3-.1.5.1-.2.1-.4.1-.5z"/><path d="m315-186.3c-.3-.3-.6-.4-.8-.6.3.3.5.5.8.6z"/><path d="m282-195.3c7.6-2.9 5.9 9.5 5 16-3.2-3.2-8.1-9.9-5-16zm4 12c.1-4.1-.1-7.9-4-8 .3 3.7 1.6 6.4 4 8z"/><path d="m306-179.3c.8 4.8-7.2 3.3-14 4 1.4-1.3 1-4.3 1-7 4.6.1 8.2-1.9 14 0-.2 3-9.2 0-12 3 1.3 3 9 2.8 11 0z"/><path d="m441-92.3c-2.5-.8-3.2-3.5-5-5 .7-3 3.8-3.5 3-8 8.7-2.6 10.2 11.3 2 13zm-2-6c-.6 3.6 3 3 6 3 1.4-4.5-4-4.9-6-3z"/><path d="m210 191.7c1.1-4.2-.1-7.5-2-11-9.2-4-12.5 8.4-22 4-.1-4.5-2.8-6.5-4-10 2.9-.3 3.1 2.3 6 2-1.7 3.3-.3 6.1 3 7 6.2-3.5 16.2-8 22-1 .1 4.6 1.4 8 3 11 4.7-.7 6.4 1.6 10 2 3.9 4.3 8.1 15.8 4 8-1.1-2.1-2-2.6-3-6-6.1-1.5-11.9-3.4-17-6z"/><path d="m692 312.7c-10.9-.4-24.1 3.5-33-3-.8 2.2-4.4 1.6-6 3-.5-1.5-1.5-2.5-2-4 .6-4.4 4.8-5.2 7-8-2.4-1.3-3.7-3.7-8-3-3 1.3-4.6 4.1-8 5-4.4-1.9-21.8-.4-19-13-5.1 4.2-3.6 12.3-1 17 2.4 4.4 9 5.4 10 9-.9 3.5-.1 2.5-1 6-3.9-.5-4.1 2.5-7 3 4.6 6.9 2 12.4-4 16 0 .2.1.5.1.7h1.3c2.8-2 6.5-3 8.5-5.7 1.3-6-3.2-6.2-3-11 5.2-.5 6.2-5.1 9-8-2.4-9.6-14.4-9.6-15-21 4.4 5.9 12.5 8.2 22 9 2.1-2.6 9.5-8.2 13-3-4.8.5-4.7 6-7 9 2.4 1.9 3.1 5.6 7 6-.3-2.6 1.4-3.3 4-3 4.4-.7 4.4 2.9 8 3 11.3 1.2 18.4-3.1 28-2 18.8 2.1 32.2 16 45.8 25.8h1.9c-17.5-12.5-29.4-27.1-51.6-27.8z"/><path d="m751.7 343.3h5.6c-3.7-1.7-8.3-2.6-13.3-2.5-.1-.1-.2-.1-.3-.2-.6 0-1.2 0-1.9 0 1 .8 2.1 1.5 3.2 2.2 2.4 0 4.6.1 6.7.5z"/></g></svg>