<svg id="visual" viewBox="0 0 960 540" width="960" height="540" xmlns="http://www.w3.org/2000/svg" xmlns:xlink="http://www.w3.org/1999/xlink" version="1.1"><path d="M0 55L192 93L384 77L576 55L768 87L960 82L960 0L768 0L576 0L384 0L192 0L0 0Z" fill="#00cc8e"></path><path d="M0 222L192 195L384 287L576 309L768 201L960 287L960 80L768 85L576 53L384 75L192 91L0 53Z" fill="#00bd8b"></path><path d="M0 320L192 282L384 374L576 347L768 266L960 314L960 285L768 199L576 307L384 285L192 193L0 220Z" fill="#00ae87"></path><path d="M0 465L192 411L384 433L576 428L768 401L960 411L960 312L768 264L576 345L384 372L192 280L0 318Z" fill="#00a081"></path><path d="M0 519L192 498L384 514L576 492L768 492L960 471L960 409L768 399L576 426L384 431L192 409L0 463Z" fill="#00917b"></path><path d="M0 541L192 541L384 541L576 541L768 541L960 541L960 469L768 490L576 490L384 512L192 496L0 517Z" fill="#038373"></path></svg>